<?xml version="1.0" encoding="utf-8"?>
<!-- Generator: Adobe Illustrator 19.0.0, SVG Export Plug-In . SVG Version: 6.00 Build 0)  -->
<svg version="1.1" id="Capa_1" xmlns="http://www.w3.org/2000/svg" xmlns:xlink="http://www.w3.org/1999/xlink" x="0px" y="0px"
	 viewBox="0 0 1000 200" style="enable-background:new 0 0 1000 200;" xml:space="preserve">
<style type="text/css">
	.st0{fill:#1E1E1E;}
</style>
<path id="XMLID_110_" class="st0" d="M447.2,72.5c3.4,0,6.5,0,10,0c0,4.1,0,8.1,0,13.7c8-10.4,17.1-16.6,29.2-16
	c12.2,0.6,20.7,6.8,24.2,17.9c5-4.7,9.3-10,14.8-13.4c18.7-11.6,40.6-1.2,42.2,20.8c1.4,19,0.8,38.2,1.1,57.2c0,0.3-0.2,0.6-0.5,1.2
	c-3,0-6,0-9.9,0c0-2,0-4,0-6.1c-0.2-16.8-0.4-33.6-0.7-50.5c-0.3-15.4-15.5-21.9-28.7-15.5c-8.9,4.4-13.9,12-14.6,21.7
	c-0.9,12.7-0.9,25.5-1.2,38.3c-0.1,3.8,0,7.7,0,11.9c-3.5,0-6.7,0-10.5,0c0-2.5,0-4.9,0-7.3c-0.3-16.5-0.1-33-1-49.4
	c-0.8-14.1-13.3-21.3-26.5-16c-9.8,4-15.4,11.7-16.5,22c-1.1,9.7-1,19.6-1.2,29.4c-0.2,7,0,14,0,21.4c-3.5,0-6.7,0-10.2,0
	C447.2,127,447.2,100,447.2,72.5z"/>
<path id="XMLID_109_" class="st0" d="M990.1,154.2c-3.6,0-6.5,0-10.3,0c0-2.1,0-4.2,0-6.2c-0.2-16.8-0.4-33.6-0.7-50.5
	c-0.3-16-16.4-21.9-29.2-15.3c-8.6,4.5-13.2,12-14.2,21.4c-0.8,8.2-1,16.4-1.2,24.6c-0.2,8.4,0,16.8,0,25.6c-3.5,0-6.7,0-10.5,0
	c0-2.1,0-4.1,0-6.2c-0.3-16.8-0.1-33.7-1-50.4c-0.8-14.2-13.2-21.4-26.4-16.1c-9.8,4-15.4,11.7-16.5,21.9c-1.1,9.7-1,19.6-1.2,29.4
	c-0.2,7,0,14,0,21.4c-3.4,0-6.6,0-10.2,0c0-26.9,0-53.8,0-81.2c3.1,0,6.3,0,10,0c0,3.9,0,7.9,0,13.6c8-10.5,17.1-16.6,29.2-16
	c12.2,0.6,20.7,6.8,24.3,18c4.9-4.6,9-9.9,14.2-13.3c18.7-12,41-1.7,42.7,20.4c1.4,18.3,0.9,36.8,1.2,55.1
	C990.3,151.7,990.2,152.7,990.1,154.2z"/>
<path id="XMLID_106_" class="st0" d="M439.5,114.4c-24.3,0-48.2,0-72.1,0c-1.5,12.4,6.7,25.7,18.4,30.5c15.2,6.2,29.4,0.5,42.9-17.6
	c2.7,1.4,5.4,2.8,8.1,4.3c-7.7,19.7-30.5,29.5-52.3,22.9c-19.9-6-32.3-28.7-27.6-50.5c4.8-22.2,24.4-36.4,46.4-33.5
	C425.1,73.4,440.5,91.8,439.5,114.4z M368.3,104.7c19.9,0,39.7,0,59.5,0c-1.4-13.8-13.8-24.6-28.6-25
	C383.5,79.2,370.9,89.3,368.3,104.7z"/>
<path id="XMLID_103_" class="st0" d="M585.9,114.3c-0.9,13.5,7.2,26.1,19.3,30.7c15.1,5.7,27.9,0.4,42.2-17.7
	c1.4,0.7,2.8,1.3,4.2,2.1c1.2,0.6,2.4,1.4,3.6,2.1c-5.2,18-27.8,28.8-49.7,23.7c-20.7-4.8-34.3-27.5-30.1-50.4
	c4.1-22.4,24.5-37.4,46.8-34.3c21.8,3.1,37.6,22.1,35.9,43.8C634,114.3,609.9,114.3,585.9,114.3z M646.5,104.7
	c-1.4-13.8-13.8-24.6-28.6-25c-15.7-0.5-28.3,9.6-30.9,25C606.8,104.7,626.6,104.7,646.5,104.7z"/>
<path id="XMLID_102_" class="st0" d="M78.1,99.7c-17.3,0-34,0-51.1,0c0,14.8,0,29.1,0,44c17,0,33.9,0,51.1,0c0,3.7,0,6.8,0,10.2
	c-20.5,0-40.9,0-61.8,0c0-36.4,0-72.9,0-109.7c20.7,0,41.3,0,62.3,0c0,3.2,0,6.4,0,10.2c-17.2,0-34.2,0-51.6,0c0,11.7,0,22.9,0,34.6
	c17,0,33.9,0,51.1,0C78.1,92.8,78.1,95.8,78.1,99.7z"/>
<path id="XMLID_99_" class="st0" d="M262.9,154c-3.4,0-6.3,0-9.7,0c0-4.2,0-8.1,0-13.6c-11.4,12.4-24.2,17.9-39.7,15.4
	c-11-1.7-19.5-7.4-26.2-16c-13.4-17.4-11.4-42.5,4.5-57.9c17.2-16.7,37.9-15.4,61.4,4.2c0-4.7,0-9,0-13.5c3.5,0,6.4,0,9.8,0
	C262.9,99.6,262.9,126.6,262.9,154z M253.7,113.6c0-19.5-13.9-34-32.4-34c-17.8,0.1-32,14.8-32.1,33.4c-0.1,18.7,14.4,34,32.2,34
	C239.8,147,253.7,132.7,253.7,113.6z"/>
<path id="XMLID_96_" class="st0" d="M777.6,113.3c0.1-24.5,18.7-43.2,42.8-43.1c23.7,0.1,41.9,19.1,41.8,43.4
	c-0.1,24.3-18.4,42.7-42.5,42.7C795.8,156.4,777.5,137.7,777.6,113.3z M851.7,113.9c0.1-19-14.1-34.2-31.8-34.3
	c-17.7,0-32,15.3-31.9,34.2c0.1,18.7,13.8,33.1,31.6,33.2C837.7,147.1,851.7,132.7,851.7,113.9z"/>
<path id="XMLID_95_" class="st0" d="M154.6,154.1c-3.6,0-6.6,0-10.5,0c0-2,0-4,0-6c-0.2-16.1,0-32.3-0.9-48.3
	c-0.9-16.4-14.6-24.6-30-18.4c-10.8,4.3-17.5,12.6-18.4,24.2c-1,14-0.8,28-1.1,42c0,2.1,0,4.1,0,6.4c-3.6,0-6.7,0-10.1,0
	c0-27.1,0-54.1,0-81.4c3.2,0,6.3,0,9.8,0c0,4.1,0,8.2,0,14c2.3-2.3,3.5-3.5,4.7-4.7c6.3-6.6,13.8-10.7,23-11.5
	c17-1.6,30.1,9.1,32.4,26.5c0.6,4.5,0.9,9.1,1,13.6C154.6,124.8,154.6,139.2,154.6,154.1z"/>
<path id="XMLID_94_" class="st0" d="M352.4,89.4c-2.7,1.7-5,3.1-7.8,4.9c-8.3-10.8-19.4-15.6-32.9-14.5c-9.1,0.7-16.8,4.4-23,11.3
	c-11.7,13-11,33.7,1.6,46.2c14.5,14.5,35.4,12.8,54.6-4.7c2.4,1.6,4.9,3.2,7.3,4.8c-6.8,14.3-28.6,22.2-48.9,17.9
	c-18.9-4-32.7-20.5-33.4-40c-0.7-20.4,12.6-38,32.8-43.4C322.2,66.6,344.1,74.2,352.4,89.4z"/>
<path id="XMLID_93_" class="st0" d="M773.8,89.4c-2.4,1.5-4.9,3.1-7.8,4.9c-8.2-10.8-19.2-15.5-32.5-14.6c-9.1,0.6-16.9,4.2-23.1,11
	c-12.2,13.3-11.3,34.8,2.1,47.3c14.7,13.7,36.7,11.6,53.5-5.5c2.5,1.6,5.1,3.2,7.6,4.9c-7.5,14.6-29.6,22.3-49.6,17.7
	c-19.2-4.5-32.8-21.5-32.8-41c0-20.4,13.4-37.5,33.4-42.4C744.3,66.8,766.1,74.5,773.8,89.4z"/>
<path id="XMLID_92_" class="st0" d="M172.8,154.1c-3.3,0-6.2,0-9.5,0c0-37.6,0-75,0-112.9c2.9,0,6,0,9.5,0
	C172.8,78.6,172.8,116.1,172.8,154.1z"/>
<path id="XMLID_91_" class="st0" d="M676.3,156.4c-5.1,0.1-9.3-4.2-9.3-9.4c0-5.2,4.2-9.5,9.3-9.4c4.9,0.1,8.9,4.1,9,9.1
	C685.5,151.9,681.4,156.3,676.3,156.4z"/>
</svg>
