<?xml version="1.0" encoding="utf-8"?>
<!-- Generator: Adobe Illustrator 19.0.0, SVG Export Plug-In . SVG Version: 6.00 Build 0)  -->
<svg version="1.1" id="Capa_1" xmlns="http://www.w3.org/2000/svg" xmlns:xlink="http://www.w3.org/1999/xlink" x="0px" y="0px"
	 viewBox="20 181 1000 200" style="enable-background:new 20 181 1000 200;" xml:space="preserve">
<style type="text/css">
	.st0{fill:#FFFFFF;}
</style>
<g id="XMLID_2_">
</g>
<g id="XMLID_59_">
</g>
<g id="XMLID_60_">
</g>
<g id="XMLID_61_">
</g>
<g id="XMLID_62_">
</g>
<g id="XMLID_63_">
</g>
<g id="XMLID_64_">
</g>
<g id="XMLID_65_">
</g>
<g id="XMLID_66_">
</g>
<g id="XMLID_67_">
</g>
<g id="XMLID_68_">
</g>
<g id="XMLID_69_">
</g>
<g id="XMLID_70_">
</g>
<g id="XMLID_71_">
</g>
<g>
	<path class="st0" d="M70.9,205.9v-6h33.8v6H91v55.7h-6.3v-55.7H70.9z"/>
	<path class="st0" d="M147.9,246.5l5,2.6c-1.6,3.2-3.5,5.8-5.6,7.7c-2.1,2-4.5,3.5-7.2,4.5c-2.7,1-5.7,1.5-9,1.5
		c-7.5,0-13.3-2.4-17.5-7.3c-4.2-4.9-6.3-10.4-6.3-16.6c0-5.8,1.8-11,5.3-15.5c4.5-5.8,10.5-8.7,18.1-8.7c7.8,0,14,3,18.7,8.9
		c3.3,4.2,5,9.4,5,15.6h-41.1c0.1,5.3,1.8,9.7,5.1,13.1s7.3,5.1,12.2,5.1c2.3,0,4.6-0.4,6.8-1.2c2.2-0.8,4.1-1.9,5.6-3.2
		C144.5,251.6,146.1,249.4,147.9,246.5z M147.9,234.2c-0.8-3.1-1.9-5.6-3.4-7.5c-1.5-1.9-3.5-3.4-5.9-4.5c-2.5-1.1-5.1-1.7-7.8-1.7
		c-4.5,0-8.3,1.4-11.6,4.3c-2.4,2.1-4.1,5.2-5.3,9.4H147.9z M133.8,194.5h9l-12.4,12.9h-5.8L133.8,194.5z"/>
	<path class="st0" d="M160,215.9h6v6.7c1.8-2.6,3.7-4.6,5.7-5.9c2-1.3,4.1-2,6.2-2c1.6,0,3.4,0.5,5.2,1.6l-3.1,5
		c-1.2-0.5-2.3-0.8-3.1-0.8c-2,0-3.8,0.8-5.7,2.4c-1.8,1.6-3.2,4.1-4.2,7.5c-0.7,2.6-1.1,7.9-1.1,15.8v15.5h-6V215.9z"/>
	<path class="st0" d="M184.8,215.9h5.9v7.9c2-2.9,4.1-5,6.3-6.4c3-1.8,6.1-2.7,9.4-2.7c2.2,0,4.3,0.4,6.3,1.3c2,0.9,3.6,2,4.9,3.5
		c1.3,1.4,2.4,3.5,3.3,6.2c2-3.6,4.4-6.3,7.3-8.2c2.9-1.9,6.1-2.8,9.5-2.8c3.2,0,5.9,0.8,8.4,2.4s4.2,3.8,5.4,6.7s1.8,7.1,1.8,12.8
		v24.9h-6v-24.9c0-4.9-0.3-8.3-1-10.1c-0.7-1.8-1.9-3.3-3.6-4.4c-1.7-1.1-3.7-1.7-6-1.7c-2.8,0-5.4,0.8-7.8,2.5s-4.1,3.9-5.2,6.7
		c-1.1,2.8-1.6,7.5-1.6,14v17.9H216v-23.4c0-5.5-0.3-9.3-1-11.2c-0.7-2-1.9-3.6-3.6-4.7c-1.7-1.2-3.7-1.8-6.1-1.8
		c-2.7,0-5.3,0.8-7.6,2.5c-2.4,1.6-4.1,3.8-5.2,6.6s-1.7,7-1.7,12.7v19.4h-5.9V215.9z"/>
	<path class="st0" d="M264.4,197.1c1.3,0,2.5,0.5,3.4,1.4c0.9,1,1.4,2.1,1.4,3.4c0,1.3-0.5,2.5-1.4,3.4c-0.9,1-2.1,1.4-3.4,1.4
		c-1.3,0-2.4-0.5-3.4-1.4c-0.9-1-1.4-2.1-1.4-3.4c0-1.3,0.5-2.5,1.4-3.4C262,197.6,263.1,197.1,264.4,197.1z M261.5,215.9h5.9v45.7
		h-5.9V215.9z"/>
	<path class="st0" d="M276.4,215.9h5.9v8.2c2.4-3.1,5-5.5,7.8-7s6-2.3,9.3-2.3c3.4,0,6.4,0.9,9.1,2.6c2.6,1.7,4.6,4.1,5.9,7
		s1.9,7.5,1.9,13.7v23.5h-5.9v-21.8c0-5.3-0.2-8.8-0.7-10.5c-0.7-3-2-5.3-3.9-6.8c-1.9-1.5-4.5-2.3-7.6-2.3c-3.6,0-6.7,1.2-9.6,3.5
		c-2.8,2.4-4.7,5.3-5.6,8.7c-0.6,2.3-0.8,6.4-0.8,12.4v16.8h-5.9V215.9z"/>
	<path class="st0" d="M347.3,214.8c7,0,12.9,2.5,17.5,7.6c4.2,4.6,6.3,10.1,6.3,16.5c0,6.4-2.2,12-6.7,16.7
		c-4.4,4.8-10.2,7.2-17.1,7.2c-7,0-12.7-2.4-17.2-7.2c-4.4-4.8-6.7-10.4-6.7-16.7c0-6.3,2.1-11.8,6.3-16.5
		C334.4,217.3,340.2,214.8,347.3,214.8z M347.3,220.5c-4.9,0-9.1,1.8-12.6,5.4c-3.5,3.6-5.3,8-5.3,13.1c0,3.3,0.8,6.4,2.4,9.2
		c1.6,2.9,3.8,5.1,6.5,6.6c2.7,1.6,5.7,2.3,9,2.3c3.3,0,6.3-0.8,9-2.3c2.7-1.6,4.9-3.8,6.5-6.6c1.6-2.9,2.4-5.9,2.4-9.2
		c0-5.1-1.8-9.5-5.3-13.1S352.1,220.5,347.3,220.5z"/>
	<path class="st0" d="M401.8,220.9l-3.8,3.9c-3.1-3.1-6.2-4.6-9.2-4.6c-1.9,0-3.5,0.6-4.9,1.9c-1.4,1.3-2,2.7-2,4.4
		c0,1.5,0.6,2.9,1.7,4.2c1.1,1.4,3.5,3,7.1,4.8c4.4,2.3,7.3,4.5,8.9,6.6c1.5,2.1,2.3,4.5,2.3,7.2c0,3.8-1.3,6.9-4,9.5
		c-2.6,2.6-5.9,3.9-9.9,3.9c-2.6,0-5.2-0.6-7.5-1.7c-2.4-1.1-4.4-2.7-6-4.7l3.7-4.2c3,3.4,6.2,5.1,9.6,5.1c2.4,0,4.4-0.8,6-2.3
		c1.7-1.5,2.5-3.3,2.5-5.3c0-1.7-0.5-3.2-1.6-4.5c-1.1-1.3-3.6-2.9-7.4-4.9c-4.1-2.1-6.9-4.2-8.4-6.3c-1.5-2.1-2.2-4.4-2.2-7.1
		c0-3.5,1.2-6.4,3.6-8.7c2.4-2.3,5.4-3.4,9-3.4C393.3,214.8,397.5,216.8,401.8,220.9z"/>
	<path class="st0" d="M424.7,215.9h6.2l15.7,35.2l15.2-35.2h6.3l-27.3,62.4h-6.2l8.8-20.2L424.7,215.9z"/>
	<path class="st0" d="M551.7,211.3l-4.9,3.7c-2.7-3.5-5.9-6.2-9.7-8c-3.8-1.8-7.9-2.7-12.4-2.7c-4.9,0-9.5,1.2-13.7,3.5
		c-4.2,2.4-7.5,5.5-9.8,9.5s-3.5,8.5-3.5,13.5c0,7.5,2.6,13.8,7.7,18.9s11.7,7.6,19.5,7.6c8.7,0,15.9-3.4,21.7-10.2l4.9,3.7
		c-3.1,3.9-6.9,6.9-11.5,9.1c-4.6,2.1-9.8,3.2-15.4,3.2c-10.8,0-19.3-3.6-25.6-10.8c-5.2-6.1-7.9-13.4-7.9-22c0-9,3.2-16.6,9.5-22.8
		s14.3-9.3,23.8-9.3c5.8,0,11,1.1,15.6,3.4C544.9,204,548.7,207.2,551.7,211.3z"/>
	<path class="st0" d="M581.5,214.8c7,0,12.9,2.5,17.5,7.6c4.2,4.6,6.3,10.1,6.3,16.5c0,6.4-2.2,12-6.7,16.7
		c-4.4,4.8-10.2,7.2-17.1,7.2c-7,0-12.7-2.4-17.2-7.2c-4.4-4.8-6.7-10.4-6.7-16.7c0-6.3,2.1-11.8,6.3-16.5
		C568.6,217.3,574.5,214.8,581.5,214.8z M581.5,220.5c-4.9,0-9.1,1.8-12.6,5.4c-3.5,3.6-5.3,8-5.3,13.1c0,3.3,0.8,6.4,2.4,9.2
		s3.8,5.1,6.5,6.6c2.7,1.6,5.7,2.3,9,2.3s6.3-0.8,9-2.3c2.7-1.6,4.9-3.8,6.5-6.6c1.6-2.9,2.4-5.9,2.4-9.2c0-5.1-1.8-9.5-5.3-13.1
		C590.6,222.3,586.4,220.5,581.5,220.5z"/>
	<path class="st0" d="M613,215.9h5.9v8.2c2.4-3.1,5-5.5,7.8-7s6-2.3,9.3-2.3c3.4,0,6.4,0.9,9.1,2.6c2.6,1.7,4.6,4.1,5.9,7
		s1.9,7.5,1.9,13.7v23.5H647v-21.8c0-5.3-0.2-8.8-0.7-10.5c-0.7-3-2-5.3-3.9-6.8c-1.9-1.5-4.5-2.3-7.6-2.3c-3.6,0-6.7,1.2-9.6,3.5
		s-4.7,5.3-5.6,8.7c-0.6,2.3-0.8,6.4-0.8,12.4v16.8H613V215.9z"/>
	<path class="st0" d="M707.9,198.3v63.3h-5.8v-7.9c-2.5,3-5.2,5.2-8.3,6.8s-6.4,2.3-10.1,2.3c-6.5,0-12-2.3-16.6-7
		c-4.6-4.7-6.9-10.4-6.9-17.1c0-6.6,2.3-12.2,6.9-16.9c4.6-4.7,10.2-7,16.7-7c3.8,0,7.1,0.8,10.2,2.4c3,1.6,5.7,4,8,7.2v-26H707.9z
		 M684.4,220.4c-3.3,0-6.3,0.8-9.1,2.4s-5,3.9-6.6,6.8c-1.6,2.9-2.5,6-2.5,9.2c0,3.2,0.8,6.3,2.5,9.2s3.9,5.2,6.6,6.9
		c2.8,1.6,5.8,2.5,9,2.5c3.2,0,6.3-0.8,9.1-2.4c2.9-1.6,5.1-3.8,6.6-6.6c1.6-2.8,2.3-5.9,2.3-9.4c0-5.3-1.7-9.7-5.2-13.3
		C693.8,222.2,689.5,220.4,684.4,220.4z"/>
	<path class="st0" d="M720.1,197.1c1.3,0,2.5,0.5,3.4,1.4c0.9,1,1.4,2.1,1.4,3.4c0,1.3-0.5,2.5-1.4,3.4c-0.9,1-2.1,1.4-3.4,1.4
		c-1.3,0-2.4-0.5-3.4-1.4c-0.9-1-1.4-2.1-1.4-3.4c0-1.3,0.5-2.5,1.4-3.4C717.6,197.6,718.8,197.1,720.1,197.1z M717.2,215.9h5.9
		v45.7h-5.9V215.9z"/>
	<path class="st0" d="M776.4,225.4l-4.7,2.9c-4-5.3-9.5-8-16.5-8c-5.6,0-10.2,1.8-13.9,5.4s-5.5,7.9-5.5,13c0,3.3,0.8,6.5,2.5,9.4
		s4,5.2,7,6.8c3,1.6,6.3,2.4,9.9,2.4c6.7,0,12.2-2.7,16.4-8l4.7,3.1c-2.2,3.3-5.1,5.8-8.8,7.7c-3.7,1.8-7.9,2.7-12.6,2.7
		c-7.2,0-13.2-2.3-18-6.9c-4.8-4.6-7.1-10.2-7.1-16.8c0-4.4,1.1-8.5,3.3-12.3c2.2-3.8,5.3-6.8,9.2-8.9c3.9-2.1,8.2-3.2,13.1-3.2
		c3,0,5.9,0.5,8.8,1.4s5.2,2.1,7.2,3.6C773.4,221.2,775,223.1,776.4,225.4z"/>
	<path class="st0" d="M786.6,197.1c1.3,0,2.5,0.5,3.4,1.4c0.9,1,1.4,2.1,1.4,3.4c0,1.3-0.5,2.5-1.4,3.4c-0.9,1-2.1,1.4-3.4,1.4
		c-1.3,0-2.4-0.5-3.4-1.4c-0.9-1-1.4-2.1-1.4-3.4c0-1.3,0.5-2.5,1.4-3.4C784.1,197.6,785.3,197.1,786.6,197.1z M783.6,215.9h5.9
		v45.7h-5.9V215.9z"/>
	<path class="st0" d="M820.2,214.8c7,0,12.9,2.5,17.5,7.6c4.2,4.6,6.3,10.1,6.3,16.5c0,6.4-2.2,12-6.7,16.7
		c-4.4,4.8-10.2,7.2-17.1,7.2c-7,0-12.7-2.4-17.2-7.2c-4.4-4.8-6.7-10.4-6.7-16.7c0-6.3,2.1-11.8,6.3-16.5
		C807.3,217.3,813.1,214.8,820.2,214.8z M820.2,220.5c-4.9,0-9.1,1.8-12.6,5.4c-3.5,3.6-5.3,8-5.3,13.1c0,3.3,0.8,6.4,2.4,9.2
		s3.8,5.1,6.5,6.6c2.7,1.6,5.7,2.3,9,2.3s6.3-0.8,9-2.3c2.7-1.6,4.9-3.8,6.5-6.6c1.6-2.9,2.4-5.9,2.4-9.2c0-5.1-1.8-9.5-5.3-13.1
		C829.2,222.3,825,220.5,820.2,220.5z"/>
	<path class="st0" d="M851.7,215.9h5.9v8.2c2.4-3.1,5-5.5,7.8-7s6-2.3,9.3-2.3c3.4,0,6.4,0.9,9.1,2.6c2.6,1.7,4.6,4.1,5.9,7
		s1.9,7.5,1.9,13.7v23.5h-5.9v-21.8c0-5.3-0.2-8.8-0.7-10.5c-0.7-3-2-5.3-3.9-6.8c-1.9-1.5-4.5-2.3-7.6-2.3c-3.6,0-6.7,1.2-9.6,3.5
		s-4.7,5.3-5.6,8.7c-0.6,2.3-0.8,6.4-0.8,12.4v16.8h-5.9V215.9z"/>
	<path class="st0" d="M939.4,246.5l5,2.6c-1.6,3.2-3.5,5.8-5.6,7.7c-2.1,2-4.5,3.5-7.2,4.5c-2.7,1-5.7,1.5-9,1.5
		c-7.5,0-13.3-2.4-17.5-7.3c-4.2-4.9-6.3-10.4-6.3-16.6c0-5.8,1.8-11,5.3-15.5c4.5-5.8,10.5-8.7,18.1-8.7c7.8,0,14,3,18.7,8.9
		c3.3,4.2,5,9.4,5,15.6h-41.1c0.1,5.3,1.8,9.7,5.1,13.1s7.3,5.1,12.2,5.1c2.3,0,4.6-0.4,6.8-1.2c2.2-0.8,4.1-1.9,5.6-3.2
		C936,251.6,937.6,249.4,939.4,246.5z M939.4,234.2c-0.8-3.1-1.9-5.6-3.4-7.5c-1.5-1.9-3.5-3.4-5.9-4.5c-2.5-1.1-5.1-1.7-7.8-1.7
		c-4.5,0-8.3,1.4-11.6,4.3c-2.4,2.1-4.1,5.2-5.3,9.4H939.4z"/>
	<path class="st0" d="M976.6,220.9l-3.8,3.9c-3.1-3.1-6.2-4.6-9.2-4.6c-1.9,0-3.5,0.6-4.9,1.9c-1.4,1.3-2,2.7-2,4.4
		c0,1.5,0.6,2.9,1.7,4.2c1.1,1.4,3.5,3,7.1,4.8c4.4,2.3,7.3,4.5,8.9,6.6c1.5,2.1,2.3,4.5,2.3,7.2c0,3.8-1.3,6.9-4,9.5
		s-5.9,3.9-9.9,3.9c-2.6,0-5.2-0.6-7.5-1.7c-2.4-1.1-4.4-2.7-6-4.7l3.7-4.2c3,3.4,6.2,5.1,9.6,5.1c2.4,0,4.4-0.8,6-2.3
		c1.7-1.5,2.5-3.3,2.5-5.3c0-1.7-0.5-3.2-1.6-4.5c-1.1-1.3-3.6-2.9-7.4-4.9c-4.1-2.1-6.9-4.2-8.4-6.3c-1.5-2.1-2.2-4.4-2.2-7.1
		c0-3.5,1.2-6.4,3.6-8.7c2.4-2.3,5.4-3.4,9-3.4C968.1,214.8,972.4,216.8,976.6,220.9z"/>
	<path class="st0" d="M442.8,288.3v63.3H437v-7.9c-2.5,3-5.2,5.2-8.3,6.8s-6.4,2.3-10.1,2.3c-6.5,0-12-2.3-16.6-7
		c-4.6-4.7-6.9-10.4-6.9-17.1c0-6.6,2.3-12.2,6.9-16.9c4.6-4.7,10.2-7,16.7-7c3.8,0,7.1,0.8,10.2,2.4c3,1.6,5.7,4,8,7.2v-26H442.8z
		 M419.3,310.4c-3.3,0-6.3,0.8-9.1,2.4c-2.8,1.6-5,3.9-6.6,6.8s-2.5,6-2.5,9.2c0,3.2,0.8,6.3,2.5,9.2s3.9,5.2,6.6,6.9
		c2.8,1.6,5.8,2.5,9,2.5c3.2,0,6.3-0.8,9.1-2.4c2.9-1.6,5.1-3.8,6.6-6.6c1.6-2.8,2.3-5.9,2.3-9.4c0-5.3-1.7-9.7-5.2-13.3
		C428.7,312.2,424.4,310.4,419.3,310.4z"/>
	<path class="st0" d="M491.4,336.5l5,2.6c-1.6,3.2-3.5,5.8-5.6,7.7c-2.1,2-4.5,3.5-7.2,4.5c-2.7,1-5.7,1.5-9,1.5
		c-7.5,0-13.3-2.4-17.5-7.3c-4.2-4.9-6.3-10.4-6.3-16.6c0-5.8,1.8-11,5.3-15.5c4.5-5.8,10.5-8.7,18.1-8.7c7.8,0,14,3,18.7,8.9
		c3.3,4.2,5,9.4,5,15.6h-41.1c0.1,5.3,1.8,9.7,5.1,13.1s7.3,5.1,12.2,5.1c2.3,0,4.6-0.4,6.8-1.2c2.2-0.8,4.1-1.9,5.6-3.2
		C487.9,341.6,489.6,339.4,491.4,336.5z M491.4,324.2c-0.8-3.1-1.9-5.6-3.4-7.5c-1.5-1.9-3.5-3.4-5.9-4.5c-2.5-1.1-5.1-1.7-7.8-1.7
		c-4.5,0-8.3,1.4-11.6,4.3c-2.4,2.1-4.1,5.2-5.3,9.4H491.4z"/>
	<path class="st0" d="M527.4,289.8h6.2v37.3c0,4.4,0.1,7.2,0.3,8.3c0.3,2.4,1,4.5,2.1,6.1c1.1,1.6,2.8,3,5.2,4.1
		c2.3,1.1,4.7,1.7,7,1.7c2,0,4-0.4,5.9-1.3c1.9-0.9,3.4-2.1,4.7-3.6c1.3-1.5,2.2-3.4,2.8-5.6c0.4-1.6,0.6-4.8,0.6-9.7v-37.3h6.2
		v37.3c0,5.5-0.5,10-1.6,13.4c-1.1,3.4-3.2,6.4-6.5,8.9s-7.1,3.8-11.7,3.8c-5,0-9.3-1.2-12.8-3.6c-3.6-2.4-5.9-5.5-7.1-9.4
		c-0.8-2.4-1.1-6.7-1.1-13V289.8z"/>
	<path class="st0" d="M602.4,310.9l-3.8,3.9c-3.1-3.1-6.2-4.6-9.2-4.6c-1.9,0-3.5,0.6-4.9,1.9c-1.4,1.3-2,2.7-2,4.4
		c0,1.5,0.6,2.9,1.7,4.2c1.1,1.4,3.5,3,7.1,4.8c4.4,2.3,7.3,4.5,8.9,6.6c1.5,2.1,2.3,4.5,2.3,7.2c0,3.8-1.3,6.9-4,9.5
		s-5.9,3.9-9.9,3.9c-2.6,0-5.2-0.6-7.5-1.7c-2.4-1.1-4.4-2.7-6-4.7l3.7-4.2c3,3.4,6.2,5.1,9.6,5.1c2.4,0,4.4-0.8,6-2.3
		c1.7-1.5,2.5-3.3,2.5-5.3c0-1.7-0.5-3.2-1.6-4.5c-1.1-1.3-3.6-2.9-7.4-4.9c-4.1-2.1-6.9-4.2-8.4-6.3c-1.5-2.1-2.2-4.4-2.2-7.1
		c0-3.5,1.2-6.4,3.6-8.7c2.4-2.3,5.4-3.4,9-3.4C593.9,304.8,598.1,306.8,602.4,310.9z"/>
	<path class="st0" d="M631.2,304.8c7,0,12.9,2.5,17.5,7.6c4.2,4.6,6.3,10.1,6.3,16.5c0,6.4-2.2,12-6.7,16.7
		c-4.4,4.8-10.2,7.2-17.1,7.2c-7,0-12.7-2.4-17.2-7.2c-4.4-4.8-6.7-10.4-6.7-16.7c0-6.3,2.1-11.8,6.3-16.5
		C618.3,307.3,624.2,304.8,631.2,304.8z M631.2,310.5c-4.9,0-9.1,1.8-12.6,5.4s-5.3,8-5.3,13.1c0,3.3,0.8,6.4,2.4,9.2
		c1.6,2.9,3.8,5.1,6.5,6.6c2.7,1.6,5.7,2.3,9,2.3c3.3,0,6.3-0.8,9-2.3c2.7-1.6,4.9-3.8,6.5-6.6c1.6-2.9,2.4-5.9,2.4-9.2
		c0-5.1-1.8-9.5-5.3-13.1C640.3,312.3,636.1,310.5,631.2,310.5z"/>
</g>
</svg>
