<?xml version="1.0" encoding="utf-8"?>
<!-- Generator: Adobe Illustrator 19.0.0, SVG Export Plug-In . SVG Version: 6.00 Build 0)  -->
<svg version="1.1" id="Capa_1" xmlns="http://www.w3.org/2000/svg" xmlns:xlink="http://www.w3.org/1999/xlink" x="0px" y="0px"
	 viewBox="0 0 1000 1000" style="enable-background:new 0 0 1000 1000;" xml:space="preserve">
<style type="text/css">
	.st0{fill:#1E1E1E;}
</style>
<path id="XMLID_22_" class="st0" d="M495.5,994.2c-162.8,0-325.6,0-488.3,0c0-328.8,0-657.7,0-986.5c328.8,0,657.7,0,986.5,0
	c0,36.8,0,73.7,0,110.5c-0.5,0-1,0-1.5,0c-163.9,0-327.8,0-491.8,0c-1.4,0-2.8,0.2-4.7,0.3c0,2.8,0,5.2,0,7.6
	c0,286.9,0,573.8,0,860.7C495.8,989.3,495.6,991.8,495.5,994.2z"/>
<path id="XMLID_20_" class="st0" d="M993.7,908.4c-108.8,0-217.7,0-326.5-0.1c-25.8,0-51.6,0-77.4,0c-1.8,0-3.5,0-5.6,0
	c0-114.9,0-229.2,0-344.1c2.4,0,4.5,0,6.6,0c132.2,0,264.4,0,396.5,0c2.1,0,4.3-0.1,6.4-0.1C993.7,678.9,993.7,793.6,993.7,908.4z"
	/>
<path id="XMLID_19_" class="st0" d="M993.7,478.3c-108.8,0-217.7,0-326.5-0.1c-25.8,0-51.6,0-77.4,0c-1.8,0-3.5,0-5.6,0
	c0-91.5,0-182.5,0-274.1c2.4,0,4.5,0,6.6,0c132.2,0,264.4,0,396.5,0c2.1,0,4.3-0.1,6.4-0.1C993.7,295.4,993.7,386.8,993.7,478.3z"/>
</svg>
