<?xml version="1.0" encoding="utf-8"?>
<!-- Generator: Adobe Illustrator 19.0.0, SVG Export Plug-In . SVG Version: 6.00 Build 0)  -->
<svg version="1.0" id="Capa_1" xmlns="http://www.w3.org/2000/svg" xmlns:xlink="http://www.w3.org/1999/xlink" x="0px" y="0px"
	 viewBox="0 0 1000 200" style="enable-background:new 0 0 1000 200;" xml:space="preserve">
<style type="text/css">
	.st0{fill:#FFFFFF;}
</style>
<g id="XMLID_1_">
	<path id="XMLID_3_" class="st0" d="M40,61.8h11.6c6.6,0,11.1,0.3,13.4,0.9c3.3,0.8,6,2.5,8.1,5c2.1,2.5,3.2,5.7,3.2,9.6
		c0,3.9-1,7.1-3.1,9.6s-4.9,4.2-8.5,5.1c-2.6,0.6-7.6,0.9-14.8,0.9h-4.2V120H40V61.8z M45.9,67.5v19.7l9.8,0.1c4,0,6.9-0.4,8.7-1.1
		c1.8-0.7,3.3-1.9,4.4-3.5c1.1-1.6,1.6-3.4,1.6-5.4c0-1.9-0.5-3.7-1.6-5.3c-1.1-1.6-2.4-2.8-4.2-3.5c-1.7-0.7-4.6-1-8.5-1H45.9z"/>
	<path id="XMLID_6_" class="st0" d="M118.1,105.7l4.7,2.5c-1.5,3-3.3,5.4-5.3,7.3c-2,1.8-4.3,3.3-6.8,4.2c-2.5,1-5.3,1.4-8.5,1.4
		c-7,0-12.5-2.3-16.5-6.9c-4-4.6-5.9-9.8-5.9-15.6c0-5.5,1.7-10.3,5-14.6c4.2-5.4,9.9-8.1,17.1-8.1c7.3,0,13.2,2.8,17.6,8.3
		c3.1,3.9,4.7,8.8,4.8,14.7H85.4c0.1,5,1.7,9.1,4.8,12.3c3.1,3.2,6.9,4.8,11.4,4.8c2.2,0,4.3-0.4,6.4-1.1c2.1-0.8,3.8-1.8,5.3-3
		C114.8,110.6,116.4,108.5,118.1,105.7z M118.1,94.1c-0.7-3-1.8-5.3-3.2-7.1c-1.4-1.8-3.3-3.2-5.6-4.3c-2.3-1.1-4.8-1.6-7.3-1.6
		c-4.2,0-7.9,1.4-10.9,4.1c-2.2,2-3.9,4.9-5,8.9H118.1z"/>
	<path id="XMLID_9_" class="st0" d="M127.1,77h5.7v6.3c1.7-2.5,3.5-4.3,5.3-5.6c1.9-1.2,3.8-1.8,5.9-1.8c1.5,0,3.2,0.5,4.9,1.5
		L146,82c-1.2-0.5-2.1-0.8-2.9-0.8c-1.8,0-3.6,0.8-5.3,2.3c-1.7,1.5-3,3.9-3.9,7.1c-0.7,2.5-1,7.4-1,14.9V120h-5.7V77z"/>
	<path id="XMLID_11_" class="st0" d="M170,81.7l-3.6,3.7c-3-2.9-5.9-4.3-8.7-4.3c-1.8,0-3.3,0.6-4.6,1.8c-1.3,1.2-1.9,2.6-1.9,4.2
		c0,1.4,0.5,2.7,1.6,4c1.1,1.3,3.3,2.8,6.7,4.5c4.1,2.1,6.9,4.2,8.4,6.2c1.5,2,2.2,4.3,2.2,6.8c0,3.5-1.2,6.5-3.7,9
		s-5.6,3.7-9.3,3.7c-2.5,0-4.9-0.5-7.1-1.6s-4.1-2.6-5.6-4.5l3.5-4c2.8,3.2,5.8,4.8,9,4.8c2.2,0,4.1-0.7,5.7-2.1
		c1.6-1.4,2.3-3.1,2.3-5c0-1.6-0.5-3-1.5-4.2c-1-1.2-3.4-2.7-7-4.6c-3.9-2-6.5-4-7.9-5.9c-1.4-2-2.1-4.2-2.1-6.7
		c0-3.3,1.1-6,3.3-8.1c2.2-2.2,5.1-3.2,8.5-3.2C161.9,75.9,165.9,77.8,170,81.7z"/>
	<path id="XMLID_13_" class="st0" d="M194.9,75.9c6.6,0,12.1,2.4,16.5,7.2c4,4.4,5.9,9.6,5.9,15.5c0,6-2.1,11.3-6.3,15.8
		c-4.2,4.5-9.6,6.7-16.1,6.7c-6.6,0-12-2.2-16.2-6.7c-4.2-4.5-6.3-9.8-6.3-15.8c0-6,2-11.1,5.9-15.5
		C182.7,78.3,188.2,75.9,194.9,75.9z M194.8,81.3c-4.6,0-8.6,1.7-11.9,5.1c-3.3,3.4-5,7.5-5,12.3c0,3.1,0.8,6,2.3,8.7
		s3.5,4.8,6.1,6.2c2.6,1.5,5.4,2.2,8.5,2.2s5.9-0.7,8.5-2.2c2.6-1.5,4.6-3.5,6.1-6.2c1.5-2.7,2.3-5.6,2.3-8.7c0-4.8-1.7-8.9-5-12.3
		C203.4,83,199.4,81.3,194.8,81.3z"/>
	<path id="XMLID_16_" class="st0" d="M222.3,77h5.5v7.7c2.2-3,4.7-5.2,7.4-6.6c2.7-1.5,5.6-2.2,8.8-2.2c3.2,0,6.1,0.8,8.6,2.5
		c2.5,1.6,4.3,3.8,5.5,6.6s1.8,7.1,1.8,12.9V120h-5.5V99.5c0-5-0.2-8.3-0.6-9.9c-0.6-2.8-1.9-5-3.7-6.4s-4.2-2.2-7.1-2.2
		c-3.3,0-6.3,1.1-9,3.3c-2.7,2.2-4.4,5-5.2,8.2c-0.5,2.1-0.8,6-0.8,11.7V120h-5.5V77z"/>
	<path id="XMLID_18_" class="st0" d="M309.3,77v43h-5.5v-7.4c-2.3,2.8-4.9,4.9-7.8,6.4c-2.9,1.4-6,2.1-9.5,2.1
		c-6.1,0-11.3-2.2-15.6-6.6c-4.3-4.4-6.5-9.8-6.5-16.1c0-6.2,2.2-11.5,6.5-15.9c4.4-4.4,9.6-6.6,15.7-6.6c3.5,0,6.7,0.8,9.6,2.3
		c2.9,1.5,5.4,3.8,7.5,6.8V77H309.3z M287.1,81.2c-3.1,0-5.9,0.8-8.5,2.3c-2.6,1.5-4.7,3.6-6.2,6.4s-2.3,5.6-2.3,8.7
		c0,3,0.8,5.9,2.3,8.7c1.6,2.8,3.6,4.9,6.3,6.5s5.4,2.3,8.4,2.3c3,0,5.9-0.8,8.6-2.3c2.7-1.5,4.8-3.6,6.3-6.2
		c1.5-2.6,2.2-5.5,2.2-8.8c0-5-1.6-9.1-4.9-12.5C296,82.9,291.9,81.2,287.1,81.2z"/>
	<path id="XMLID_21_" class="st0" d="M338.1,81.7l-3.6,3.7c-3-2.9-5.9-4.3-8.7-4.3c-1.8,0-3.3,0.6-4.6,1.8c-1.3,1.2-1.9,2.6-1.9,4.2
		c0,1.4,0.5,2.7,1.6,4c1.1,1.3,3.3,2.8,6.7,4.5c4.1,2.1,6.9,4.2,8.4,6.2c1.5,2,2.2,4.3,2.2,6.8c0,3.5-1.2,6.5-3.7,9
		s-5.6,3.7-9.3,3.7c-2.5,0-4.9-0.5-7.1-1.6s-4.1-2.6-5.6-4.5l3.5-4c2.8,3.2,5.8,4.8,9,4.8c2.2,0,4.1-0.7,5.7-2.1
		c1.6-1.4,2.3-3.1,2.3-5c0-1.6-0.5-3-1.5-4.2c-1-1.2-3.4-2.7-7-4.6c-3.9-2-6.5-4-7.9-5.9c-1.4-2-2.1-4.2-2.1-6.7
		c0-3.3,1.1-6,3.3-8.1c2.2-2.2,5.1-3.2,8.5-3.2C330.1,75.9,334.1,77.8,338.1,81.7z"/>
	<path id="XMLID_23_" class="st0" d="M401.6,85.9l-4.4,2.7c-3.8-5-9-7.6-15.5-7.6c-5.2,0-9.6,1.7-13.1,5.1
		c-3.5,3.4-5.2,7.5-5.2,12.3c0,3.1,0.8,6.1,2.4,8.9c1.6,2.8,3.8,4.9,6.6,6.4c2.8,1.5,5.9,2.3,9.3,2.3c6.3,0,11.5-2.5,15.5-7.6
		l4.4,2.9c-2.1,3.1-4.8,5.5-8.3,7.2c-3.5,1.7-7.4,2.6-11.8,2.6c-6.8,0-12.4-2.2-16.9-6.5c-4.5-4.3-6.7-9.6-6.7-15.8
		c0-4.2,1-8,3.1-11.6c2.1-3.6,5-6.4,8.6-8.4c3.7-2,7.8-3,12.3-3c2.8,0,5.6,0.4,8.2,1.3c2.7,0.9,4.9,2,6.7,3.4
		C398.7,82,400.3,83.7,401.6,85.9z"/>
	<path id="XMLID_25_" class="st0" d="M427.3,75.9c6.6,0,12.1,2.4,16.5,7.2c4,4.4,5.9,9.6,5.9,15.5c0,6-2.1,11.3-6.3,15.8
		c-4.2,4.5-9.6,6.7-16.1,6.7c-6.6,0-12-2.2-16.2-6.7c-4.2-4.5-6.3-9.8-6.3-15.8c0-6,2-11.1,5.9-15.5
		C415.1,78.3,420.7,75.9,427.3,75.9z M427.3,81.3c-4.6,0-8.6,1.7-11.9,5.1c-3.3,3.4-5,7.5-5,12.3c0,3.1,0.8,6,2.3,8.7
		s3.5,4.8,6.1,6.2c2.6,1.5,5.4,2.2,8.5,2.2s5.9-0.7,8.5-2.2c2.6-1.5,4.6-3.5,6.1-6.2c1.5-2.7,2.3-5.6,2.3-8.7c0-4.8-1.7-8.9-5-12.3
		C435.8,83,431.9,81.3,427.3,81.3z"/>
	<path id="XMLID_28_" class="st0" d="M454.7,77h5.5v7.7c2.2-3,4.7-5.2,7.4-6.6c2.7-1.5,5.6-2.2,8.8-2.2c3.2,0,6.1,0.8,8.6,2.5
		c2.5,1.6,4.3,3.8,5.5,6.6s1.8,7.1,1.8,12.9V120h-5.5V99.5c0-5-0.2-8.3-0.6-9.9c-0.6-2.8-1.9-5-3.7-6.4s-4.2-2.2-7.1-2.2
		c-3.3,0-6.3,1.1-9,3.3c-2.7,2.2-4.4,5-5.2,8.2c-0.5,2.1-0.8,6-0.8,11.7V120h-5.5V77z"/>
	<path id="XMLID_30_" class="st0" d="M516.9,61.8h11.6c6.6,0,11.1,0.3,13.4,0.9c3.3,0.8,6,2.5,8.1,5c2.1,2.5,3.2,5.7,3.2,9.6
		c0,3.9-1,7.1-3.1,9.6s-4.9,4.2-8.5,5.1c-2.6,0.6-7.6,0.9-14.8,0.9h-4.2V120h-5.8V61.8z M522.7,67.5v19.7l9.8,0.1
		c4,0,6.9-0.4,8.7-1.1s3.3-1.9,4.3-3.5c1.1-1.6,1.6-3.4,1.6-5.4c0-1.9-0.5-3.7-1.6-5.3c-1.1-1.6-2.4-2.8-4.2-3.5s-4.6-1-8.5-1H522.7
		z"/>
	<path id="XMLID_33_" class="st0" d="M601.6,77v43h-5.5v-7.4c-2.3,2.8-4.9,4.9-7.8,6.4c-2.9,1.4-6,2.1-9.5,2.1
		c-6.1,0-11.3-2.2-15.6-6.6c-4.3-4.4-6.5-9.8-6.5-16.1c0-6.2,2.2-11.5,6.5-15.9c4.4-4.4,9.6-6.6,15.7-6.6c3.5,0,6.7,0.8,9.6,2.3
		c2.9,1.5,5.4,3.8,7.5,6.8V77H601.6z M579.4,81.2c-3.1,0-5.9,0.8-8.5,2.3c-2.6,1.5-4.7,3.6-6.2,6.4c-1.5,2.7-2.3,5.6-2.3,8.7
		c0,3,0.8,5.9,2.3,8.7c1.6,2.8,3.6,4.9,6.3,6.5c2.6,1.5,5.4,2.3,8.4,2.3c3,0,5.9-0.8,8.6-2.3c2.7-1.5,4.8-3.6,6.3-6.2
		s2.2-5.5,2.2-8.8c0-5-1.6-9.1-4.9-12.5S584.2,81.2,579.4,81.2z"/>
	<path id="XMLID_36_" class="st0" d="M630.4,81.7l-3.6,3.7c-3-2.9-5.9-4.3-8.7-4.3c-1.8,0-3.3,0.6-4.6,1.8s-1.9,2.6-1.9,4.2
		c0,1.4,0.5,2.7,1.6,4c1.1,1.3,3.3,2.8,6.7,4.5c4.1,2.1,6.9,4.2,8.4,6.2c1.5,2,2.2,4.3,2.2,6.8c0,3.5-1.2,6.5-3.7,9
		s-5.6,3.7-9.3,3.7c-2.5,0-4.9-0.5-7.1-1.6s-4.1-2.6-5.6-4.5l3.5-4c2.8,3.2,5.8,4.8,9,4.8c2.2,0,4.1-0.7,5.7-2.1s2.3-3.1,2.3-5
		c0-1.6-0.5-3-1.5-4.2c-1-1.2-3.4-2.7-7-4.6c-3.9-2-6.5-4-7.9-5.9c-1.4-2-2.1-4.2-2.1-6.7c0-3.3,1.1-6,3.3-8.1
		c2.2-2.2,5.1-3.2,8.5-3.2C622.4,75.9,626.4,77.8,630.4,81.7z"/>
	<path id="XMLID_38_" class="st0" d="M677.8,77v43h-5.5v-7.4c-2.3,2.8-4.9,4.9-7.8,6.4c-2.9,1.4-6,2.1-9.5,2.1
		c-6.1,0-11.3-2.2-15.6-6.6c-4.3-4.4-6.5-9.8-6.5-16.1c0-6.2,2.2-11.5,6.5-15.9c4.4-4.4,9.6-6.6,15.7-6.6c3.5,0,6.7,0.8,9.6,2.3
		c2.9,1.5,5.4,3.8,7.5,6.8V77H677.8z M655.7,81.2c-3.1,0-5.9,0.8-8.5,2.3c-2.6,1.5-4.7,3.6-6.2,6.4c-1.5,2.7-2.3,5.6-2.3,8.7
		c0,3,0.8,5.9,2.3,8.7c1.6,2.8,3.6,4.9,6.3,6.5c2.6,1.5,5.4,2.3,8.4,2.3c3,0,5.9-0.8,8.6-2.3c2.7-1.5,4.8-3.6,6.3-6.2
		s2.2-5.5,2.2-8.8c0-5-1.6-9.1-4.9-12.5S660.5,81.2,655.7,81.2z"/>
	<path id="XMLID_41_" class="st0" d="M689.8,61h5.5v16h8.8v4.8h-8.8V120h-5.5V81.8h-7.6V77h7.6V61z"/>
	<path id="XMLID_43_" class="st0" d="M709.1,59.3c1.3,0,2.3,0.4,3.2,1.3c0.9,0.9,1.3,2,1.3,3.2c0,1.2-0.4,2.3-1.3,3.2
		c-0.9,0.9-2,1.3-3.2,1.3c-1.2,0-2.3-0.4-3.2-1.3c-0.9-0.9-1.3-2-1.3-3.2c0-1.3,0.4-2.3,1.3-3.2C706.8,59.7,707.9,59.3,709.1,59.3z
		 M706.3,77h5.5v43h-5.5V77z"/>
	<path id="XMLID_46_" class="st0" d="M754.4,105.7l4.7,2.5c-1.5,3-3.3,5.4-5.3,7.3c-2,1.8-4.3,3.3-6.8,4.2c-2.5,1-5.3,1.4-8.5,1.4
		c-7,0-12.5-2.3-16.5-6.9c-4-4.6-5.9-9.8-5.9-15.6c0-5.5,1.7-10.3,5-14.6c4.2-5.4,9.9-8.1,17.1-8.1c7.3,0,13.2,2.8,17.6,8.3
		c3.1,3.9,4.7,8.8,4.8,14.7h-38.7c0.1,5,1.7,9.1,4.8,12.3c3.1,3.2,6.9,4.8,11.4,4.8c2.2,0,4.3-0.4,6.4-1.1c2.1-0.8,3.8-1.8,5.3-3
		S752.7,108.5,754.4,105.7z M754.4,94.1c-0.7-3-1.8-5.3-3.2-7.1c-1.4-1.8-3.3-3.2-5.6-4.3c-2.3-1.1-4.8-1.6-7.3-1.6
		c-4.2,0-7.9,1.4-10.9,4.1c-2.2,2-3.9,4.9-5,8.9H754.4z"/>
	<path id="XMLID_49_" class="st0" d="M765.5,77h5.5v7.4c1.9-2.7,3.9-4.7,5.9-6c2.8-1.7,5.7-2.5,8.8-2.5c2.1,0,4.1,0.4,5.9,1.2
		c1.9,0.8,3.4,1.9,4.6,3.3c1.2,1.4,2.2,3.3,3.1,5.8c1.8-3.4,4.1-5.9,6.9-7.7c2.8-1.8,5.7-2.6,8.9-2.6c3,0,5.6,0.8,7.9,2.3
		s4,3.6,5.1,6.3c1.1,2.7,1.7,6.7,1.7,12.1V120h-5.7V96.5c0-4.6-0.3-7.8-1-9.5s-1.8-3.1-3.4-4.2c-1.6-1.1-3.5-1.6-5.7-1.6
		c-2.7,0-5.1,0.8-7.4,2.4c-2.2,1.6-3.8,3.7-4.9,6.3c-1,2.6-1.5,7-1.5,13.2V120h-5.5V98c0-5.2-0.3-8.7-1-10.6
		c-0.6-1.9-1.8-3.3-3.4-4.5c-1.6-1.1-3.5-1.7-5.7-1.7c-2.6,0-5,0.8-7.2,2.3c-2.2,1.5-3.9,3.6-4.9,6.2c-1.1,2.6-1.6,6.6-1.6,12V120
		h-5.5V77z"/>
	<path id="XMLID_51_" class="st0" d="M836.3,77h5.5v7.9c2.2-3,4.7-5.3,7.5-6.8c2.8-1.5,6-2.3,9.5-2.3c6.1,0,11.3,2.2,15.7,6.6
		c4.3,4.4,6.5,9.7,6.5,15.9c0,6.3-2.2,11.7-6.5,16.1c-4.3,4.4-9.5,6.6-15.6,6.6c-3.4,0-6.6-0.7-9.4-2.1s-5.5-3.5-7.8-6.4v23.1h-5.5
		V77z M858.4,81.2c-4.8,0-8.8,1.7-12.1,5s-4.9,7.5-4.9,12.5c0,3.3,0.7,6.2,2.2,8.8c1.5,2.6,3.6,4.7,6.3,6.2c2.7,1.5,5.6,2.3,8.6,2.3
		c3,0,5.8-0.8,8.4-2.3s4.7-3.7,6.3-6.5c1.6-2.8,2.3-5.7,2.3-8.7c0-3.1-0.8-6-2.3-8.7c-1.5-2.7-3.6-4.9-6.2-6.4
		C864.4,82,861.5,81.2,858.4,81.2z"/>
	<path id="XMLID_54_" class="st0" d="M906.6,75.9c6.6,0,12.1,2.4,16.5,7.2c4,4.4,5.9,9.6,5.9,15.5c0,6-2.1,11.3-6.3,15.8
		c-4.2,4.5-9.6,6.7-16.1,6.7c-6.6,0-12-2.2-16.2-6.7c-4.2-4.5-6.3-9.8-6.3-15.8c0-6,2-11.1,5.9-15.5
		C894.4,78.3,899.9,75.9,906.6,75.9z M906.6,81.3c-4.6,0-8.6,1.7-11.9,5.1s-5,7.5-5,12.3c0,3.1,0.8,6,2.3,8.7s3.5,4.8,6.1,6.2
		c2.6,1.5,5.4,2.2,8.5,2.2s5.9-0.7,8.5-2.2c2.6-1.5,4.6-3.5,6.1-6.2s2.3-5.6,2.3-8.7c0-4.8-1.7-8.9-5-12.3S911.1,81.3,906.6,81.3z"
		/>
	<path id="XMLID_57_" class="st0" d="M955.6,81.7l-3.6,3.7c-3-2.9-5.9-4.3-8.7-4.3c-1.8,0-3.3,0.6-4.6,1.8s-1.9,2.6-1.9,4.2
		c0,1.4,0.5,2.7,1.6,4c1.1,1.3,3.3,2.8,6.7,4.5c4.1,2.1,6.9,4.2,8.4,6.2c1.5,2,2.2,4.3,2.2,6.8c0,3.5-1.2,6.5-3.7,9
		s-5.6,3.7-9.3,3.7c-2.5,0-4.9-0.5-7.1-1.6s-4.1-2.6-5.6-4.5l3.5-4c2.8,3.2,5.8,4.8,9,4.8c2.2,0,4.1-0.7,5.7-2.1s2.3-3.1,2.3-5
		c0-1.6-0.5-3-1.5-4.2c-1-1.2-3.4-2.7-7-4.6c-3.9-2-6.5-4-7.9-5.9c-1.4-2-2.1-4.2-2.1-6.7c0-3.3,1.1-6,3.3-8.1
		c2.2-2.2,5.1-3.2,8.5-3.2C947.6,75.9,951.6,77.8,955.6,81.7z"/>
</g>
<g id="XMLID_2_">
</g>
<g id="XMLID_59_">
</g>
<g id="XMLID_60_">
</g>
<g id="XMLID_61_">
</g>
<g id="XMLID_62_">
</g>
<g id="XMLID_63_">
</g>
<g id="XMLID_64_">
</g>
<g id="XMLID_65_">
</g>
<g id="XMLID_66_">
</g>
<g id="XMLID_67_">
</g>
<g id="XMLID_68_">
</g>
<g id="XMLID_69_">
</g>
<g id="XMLID_70_">
</g>
<g id="XMLID_71_">
</g>
<g id="XMLID_72_">
</g>
</svg>
