<?xml version="1.0" encoding="utf-8"?>
<!-- Generator: Adobe Illustrator 19.0.0, SVG Export Plug-In . SVG Version: 6.00 Build 0)  -->
<svg version="1.1" id="Capa_1" xmlns="http://www.w3.org/2000/svg" xmlns:xlink="http://www.w3.org/1999/xlink" x="0px" y="0px"
	 viewBox="20 181 1000 200" style="enable-background:new 20 181 1000 200;" xml:space="preserve">
<style type="text/css">
	.st0{fill:#FFFFFF;}
</style>
<g id="XMLID_2_">
</g>
<g id="XMLID_59_">
</g>
<g id="XMLID_60_">
</g>
<g id="XMLID_61_">
</g>
<g id="XMLID_62_">
</g>
<g id="XMLID_63_">
</g>
<g id="XMLID_64_">
</g>
<g id="XMLID_65_">
</g>
<g id="XMLID_66_">
</g>
<g id="XMLID_67_">
</g>
<g id="XMLID_68_">
</g>
<g id="XMLID_69_">
</g>
<g id="XMLID_70_">
</g>
<g id="XMLID_71_">
</g>
<g>
	<path class="st0" d="M204.7,199.8H217c7.1,0,11.8,0.3,14.3,0.9c3.5,0.9,6.4,2.7,8.7,5.4c2.2,2.7,3.4,6.1,3.4,10.2
		c0,4.1-1.1,7.5-3.3,10.2c-2.2,2.7-5.2,4.5-9,5.4c-2.8,0.7-8,1-15.7,1h-4.4v28.7h-6.2V199.8z M210.9,205.9v21l10.5,0.1
		c4.2,0,7.3-0.4,9.3-1.2c2-0.8,3.5-2,4.6-3.7c1.1-1.7,1.7-3.6,1.7-5.8c0-2.1-0.6-4-1.7-5.7c-1.1-1.7-2.6-2.9-4.4-3.7
		c-1.8-0.7-4.8-1.1-9-1.1H210.9z"/>
	<path class="st0" d="M273.1,214.8c7,0,12.9,2.5,17.5,7.6c4.2,4.6,6.3,10.1,6.3,16.5c0,6.4-2.2,12-6.7,16.7
		c-4.4,4.8-10.2,7.2-17.1,7.2c-7,0-12.7-2.4-17.2-7.2c-4.4-4.8-6.7-10.4-6.7-16.7c0-6.3,2.1-11.8,6.3-16.5
		C260.2,217.3,266.1,214.8,273.1,214.8z M273.1,220.5c-4.9,0-9.1,1.8-12.6,5.4c-3.5,3.6-5.3,8-5.3,13.1c0,3.3,0.8,6.4,2.4,9.2
		c1.6,2.9,3.8,5.1,6.5,6.6c2.7,1.6,5.7,2.3,9,2.3c3.3,0,6.3-0.8,9-2.3c2.7-1.6,4.9-3.8,6.5-6.6c1.6-2.9,2.4-5.9,2.4-9.2
		c0-5.1-1.8-9.5-5.3-13.1S278,220.5,273.1,220.5z"/>
	<path class="st0" d="M303.8,198.3h5.9v63.3h-5.9V198.3z"/>
	<path class="st0" d="M323.6,194.5h9l-12.4,12.9h-5.8L323.6,194.5z M317.8,215.9h5.9v45.7h-5.9V215.9z"/>
	<path class="st0" d="M337.8,199h5.9v17h9.3v5.1h-9.3v40.6h-5.9V221h-8v-5.1h8V199z"/>
	<path class="st0" d="M360.7,197.1c1.3,0,2.5,0.5,3.4,1.4c0.9,1,1.4,2.1,1.4,3.4c0,1.3-0.5,2.5-1.4,3.4c-0.9,1-2.1,1.4-3.4,1.4
		c-1.3,0-2.4-0.5-3.4-1.4c-0.9-1-1.4-2.1-1.4-3.4c0-1.3,0.5-2.5,1.4-3.4C358.3,197.6,359.4,197.1,360.7,197.1z M357.8,215.9h5.9
		v45.7h-5.9V215.9z"/>
	<path class="st0" d="M417.1,225.4l-4.7,2.9c-4-5.3-9.5-8-16.5-8c-5.6,0-10.2,1.8-13.9,5.4c-3.7,3.6-5.5,7.9-5.5,13
		c0,3.3,0.8,6.5,2.5,9.4s4,5.2,7,6.8c3,1.6,6.3,2.4,9.9,2.4c6.7,0,12.2-2.7,16.4-8l4.7,3.1c-2.2,3.3-5.1,5.8-8.8,7.7
		c-3.7,1.8-7.9,2.7-12.6,2.7c-7.2,0-13.2-2.3-18-6.9c-4.8-4.6-7.1-10.2-7.1-16.8c0-4.4,1.1-8.5,3.3-12.3c2.2-3.8,5.3-6.8,9.2-8.9
		c3.9-2.1,8.2-3.2,13.1-3.2c3,0,5.9,0.5,8.8,1.4s5.2,2.1,7.2,3.6C414,221.2,415.7,223.1,417.1,225.4z"/>
	<path class="st0" d="M470.7,215.9v45.7h-5.8v-7.9c-2.5,3-5.2,5.2-8.3,6.8s-6.4,2.3-10.1,2.3c-6.5,0-12-2.3-16.6-7
		c-4.6-4.7-6.9-10.4-6.9-17.1c0-6.6,2.3-12.2,6.9-16.9c4.6-4.7,10.2-7,16.7-7c3.8,0,7.1,0.8,10.2,2.4c3,1.6,5.7,4,8,7.2v-8.4H470.7z
		 M447.2,220.4c-3.3,0-6.3,0.8-9.1,2.4s-5,3.9-6.6,6.8c-1.6,2.9-2.5,6-2.5,9.2c0,3.2,0.8,6.3,2.5,9.2s3.9,5.2,6.6,6.9
		c2.8,1.6,5.8,2.5,9,2.5c3.2,0,6.3-0.8,9.1-2.4c2.9-1.6,5.1-3.8,6.6-6.6c1.6-2.8,2.3-5.9,2.3-9.4c0-5.3-1.7-9.7-5.2-13.3
		C456.6,222.2,452.3,220.4,447.2,220.4z"/>
	<path class="st0" d="M547,198.3v63.3h-5.8v-7.9c-2.5,3-5.2,5.2-8.3,6.8s-6.4,2.3-10.1,2.3c-6.5,0-12-2.3-16.6-7
		c-4.6-4.7-6.9-10.4-6.9-17.1c0-6.6,2.3-12.2,6.9-16.9c4.6-4.7,10.2-7,16.7-7c3.8,0,7.1,0.8,10.2,2.4c3,1.6,5.7,4,8,7.2v-26H547z
		 M523.5,220.4c-3.3,0-6.3,0.8-9.1,2.4s-5,3.9-6.6,6.8c-1.6,2.9-2.5,6-2.5,9.2c0,3.2,0.8,6.3,2.5,9.2s3.9,5.2,6.6,6.9
		c2.8,1.6,5.8,2.5,9,2.5c3.2,0,6.3-0.8,9.1-2.4c2.9-1.6,5.1-3.8,6.6-6.6c1.6-2.8,2.3-5.9,2.3-9.4c0-5.3-1.7-9.7-5.2-13.3
		C532.8,222.2,528.6,220.4,523.5,220.4z"/>
	<path class="st0" d="M595.6,246.5l5,2.6c-1.6,3.2-3.5,5.8-5.6,7.7c-2.1,2-4.5,3.5-7.2,4.5c-2.7,1-5.7,1.5-9,1.5
		c-7.5,0-13.3-2.4-17.5-7.3c-4.2-4.9-6.3-10.4-6.3-16.6c0-5.8,1.8-11,5.3-15.5c4.5-5.8,10.5-8.7,18.1-8.7c7.8,0,14,3,18.7,8.9
		c3.3,4.2,5,9.4,5,15.6h-41.1c0.1,5.3,1.8,9.7,5.1,13.1s7.3,5.1,12.2,5.1c2.3,0,4.6-0.4,6.8-1.2c2.2-0.8,4.1-1.9,5.6-3.2
		C592.1,251.6,593.8,249.4,595.6,246.5z M595.6,234.2c-0.8-3.1-1.9-5.6-3.4-7.5c-1.5-1.9-3.5-3.4-5.9-4.5c-2.5-1.1-5.1-1.7-7.8-1.7
		c-4.5,0-8.3,1.4-11.6,4.3c-2.4,2.1-4.1,5.2-5.3,9.4H595.6z"/>
	<path class="st0" d="M631.4,261.6v-61.8h12.8c9.2,0,15.9,0.7,20.1,2.2c6,2.1,10.7,5.7,14,10.9c3.4,5.2,5.1,11.4,5.1,18.5
		c0,6.2-1.3,11.6-4,16.3c-2.7,4.7-6.1,8.2-10.4,10.4c-4.3,2.2-10.3,3.4-18,3.4H631.4z M637.3,255.8h7.1c8.5,0,14.5-0.5,17.8-1.6
		c4.6-1.5,8.3-4.2,11-8.2c2.7-3.9,4-8.7,4-14.4c0-6-1.4-11-4.3-15.3c-2.9-4.2-6.9-7.1-12.1-8.7c-3.9-1.2-10.2-1.8-19.1-1.8h-4.4
		V255.8z"/>
	<path class="st0" d="M736.8,215.9v45.7H731v-7.9c-2.5,3-5.2,5.2-8.3,6.8s-6.4,2.3-10.1,2.3c-6.5,0-12-2.3-16.6-7
		c-4.6-4.7-6.9-10.4-6.9-17.1c0-6.6,2.3-12.2,6.9-16.9c4.6-4.7,10.2-7,16.7-7c3.8,0,7.1,0.8,10.2,2.4c3,1.6,5.7,4,8,7.2v-8.4H736.8z
		 M713.3,220.4c-3.3,0-6.3,0.8-9.1,2.4s-5,3.9-6.6,6.8c-1.6,2.9-2.5,6-2.5,9.2c0,3.2,0.8,6.3,2.5,9.2s3.9,5.2,6.6,6.9
		c2.8,1.6,5.8,2.5,9,2.5c3.2,0,6.3-0.8,9.1-2.4c2.9-1.6,5.1-3.8,6.6-6.6c1.6-2.8,2.3-5.9,2.3-9.4c0-5.3-1.7-9.7-5.2-13.3
		C722.6,222.2,718.4,220.4,713.3,220.4z"/>
	<path class="st0" d="M751.9,199h5.9v17h9.3v5.1h-9.3v40.6h-5.9V221h-8v-5.1h8V199z"/>
	<path class="st0" d="M794.4,214.8c7,0,12.9,2.5,17.5,7.6c4.2,4.6,6.3,10.1,6.3,16.5c0,6.4-2.2,12-6.7,16.7
		c-4.4,4.8-10.2,7.2-17.1,7.2c-7,0-12.7-2.4-17.2-7.2c-4.4-4.8-6.7-10.4-6.7-16.7c0-6.3,2.1-11.8,6.3-16.5
		C781.5,217.3,787.3,214.8,794.4,214.8z M794.4,220.5c-4.9,0-9.1,1.8-12.6,5.4c-3.5,3.6-5.3,8-5.3,13.1c0,3.3,0.8,6.4,2.4,9.2
		s3.8,5.1,6.5,6.6c2.7,1.6,5.7,2.3,9,2.3s6.3-0.8,9-2.3c2.7-1.6,4.9-3.8,6.5-6.6c1.6-2.9,2.4-5.9,2.4-9.2c0-5.1-1.8-9.5-5.3-13.1
		C803.4,222.3,799.2,220.5,794.4,220.5z"/>
	<path class="st0" d="M848.9,220.9l-3.8,3.9c-3.1-3.1-6.2-4.6-9.2-4.6c-1.9,0-3.5,0.6-4.9,1.9s-2,2.7-2,4.4c0,1.5,0.6,2.9,1.7,4.2
		c1.1,1.4,3.5,3,7.1,4.8c4.4,2.3,7.3,4.5,8.9,6.6c1.5,2.1,2.3,4.5,2.3,7.2c0,3.8-1.3,6.9-4,9.5c-2.6,2.6-5.9,3.9-9.9,3.9
		c-2.6,0-5.2-0.6-7.5-1.7s-4.4-2.7-6-4.7l3.7-4.2c3,3.4,6.2,5.1,9.6,5.1c2.4,0,4.4-0.8,6-2.3c1.7-1.5,2.5-3.3,2.5-5.3
		c0-1.7-0.5-3.2-1.6-4.5c-1.1-1.3-3.6-2.9-7.4-4.9c-4.1-2.1-6.9-4.2-8.4-6.3c-1.5-2.1-2.2-4.4-2.2-7.1c0-3.5,1.2-6.4,3.6-8.7
		c2.4-2.3,5.4-3.4,9-3.4C840.4,214.8,844.6,216.8,848.9,220.9z"/>
	<path class="st0" d="M284.3,305.9h6.2l15.7,35.2l15.2-35.2h6.3l-27.3,62.4h-6.2l8.8-20.2L284.3,305.9z"/>
	<path class="st0" d="M353.7,289.8H366c7.1,0,11.8,0.3,14.3,0.9c3.5,0.9,6.4,2.7,8.7,5.4c2.2,2.7,3.4,6.1,3.4,10.2
		c0,4.1-1.1,7.5-3.3,10.2c-2.2,2.7-5.2,4.5-9,5.4c-2.8,0.7-8,1-15.7,1h-4.4v28.7h-6.2V289.8z M359.8,295.9v21l10.5,0.1
		c4.2,0,7.3-0.4,9.3-1.2c2-0.8,3.5-2,4.6-3.7c1.1-1.7,1.7-3.6,1.7-5.8c0-2.1-0.6-4-1.7-5.7c-1.1-1.7-2.6-2.9-4.4-3.7
		c-1.8-0.7-4.8-1.1-9-1.1H359.8z"/>
	<path class="st0" d="M398.2,305.9h6v6.7c1.8-2.6,3.7-4.6,5.7-5.9c2-1.3,4.1-2,6.2-2c1.6,0,3.4,0.5,5.2,1.6l-3.1,5
		c-1.2-0.5-2.3-0.8-3.1-0.8c-2,0-3.8,0.8-5.7,2.4c-1.8,1.6-3.2,4.1-4.2,7.5c-0.7,2.6-1.1,7.9-1.1,15.8v15.5h-6V305.9z"/>
	<path class="st0" d="M425.2,287.1c1.3,0,2.5,0.5,3.4,1.4c0.9,1,1.4,2.1,1.4,3.4c0,1.3-0.5,2.5-1.4,3.4c-0.9,1-2.1,1.4-3.4,1.4
		c-1.3,0-2.4-0.5-3.4-1.4c-0.9-1-1.4-2.1-1.4-3.4c0-1.3,0.5-2.5,1.4-3.4C422.7,287.6,423.9,287.1,425.2,287.1z M422.2,305.9h5.9
		v45.7h-5.9V305.9z"/>
	<path class="st0" d="M432.8,305.9h6.3l15.3,33.3l15.2-33.3h6.3L455,351.6h-1.1L432.8,305.9z"/>
	<path class="st0" d="M527.2,305.9v45.7h-5.8v-7.9c-2.5,3-5.2,5.2-8.3,6.8s-6.4,2.3-10.1,2.3c-6.5,0-12-2.3-16.6-7
		c-4.6-4.7-6.9-10.4-6.9-17.1c0-6.6,2.3-12.2,6.9-16.9c4.6-4.7,10.2-7,16.7-7c3.8,0,7.1,0.8,10.2,2.4c3,1.6,5.7,4,8,7.2v-8.4H527.2z
		 M503.7,310.4c-3.3,0-6.3,0.8-9.1,2.4c-2.8,1.6-5,3.9-6.6,6.8s-2.5,6-2.5,9.2c0,3.2,0.8,6.3,2.5,9.2s3.9,5.2,6.6,6.9
		c2.8,1.6,5.8,2.5,9,2.5c3.2,0,6.3-0.8,9.1-2.4c2.9-1.6,5.1-3.8,6.6-6.6c1.6-2.8,2.3-5.9,2.3-9.4c0-5.3-1.7-9.7-5.2-13.3
		C513,312.2,508.8,310.4,503.7,310.4z"/>
	<path class="st0" d="M581.6,315.4l-4.7,2.9c-4-5.3-9.5-8-16.5-8c-5.6,0-10.2,1.8-13.9,5.4s-5.5,7.9-5.5,13c0,3.3,0.8,6.5,2.5,9.4
		s4,5.2,7,6.8c3,1.6,6.3,2.4,9.9,2.4c6.7,0,12.2-2.7,16.4-8l4.7,3.1c-2.2,3.3-5.1,5.8-8.8,7.7c-3.7,1.8-7.9,2.7-12.6,2.7
		c-7.2,0-13.2-2.3-18-6.9c-4.8-4.6-7.1-10.2-7.1-16.8c0-4.4,1.1-8.5,3.3-12.3c2.2-3.8,5.3-6.8,9.2-8.9c3.9-2.1,8.2-3.2,13.1-3.2
		c3,0,5.9,0.5,8.8,1.4s5.2,2.1,7.2,3.6C578.5,311.2,580.2,313.1,581.6,315.4z"/>
	<path class="st0" d="M591.7,287.1c1.3,0,2.5,0.5,3.4,1.4c0.9,1,1.4,2.1,1.4,3.4c0,1.3-0.5,2.5-1.4,3.4c-0.9,1-2.1,1.4-3.4,1.4
		c-1.3,0-2.4-0.5-3.4-1.4c-0.9-1-1.4-2.1-1.4-3.4c0-1.3,0.5-2.5,1.4-3.4C589.3,287.6,590.4,287.1,591.7,287.1z M588.8,305.9h5.9
		v45.7h-5.9V305.9z"/>
	<path class="st0" d="M649.3,288.3v63.3h-5.8v-7.9c-2.5,3-5.2,5.2-8.3,6.8s-6.4,2.3-10.1,2.3c-6.5,0-12-2.3-16.6-7
		c-4.6-4.7-6.9-10.4-6.9-17.1c0-6.6,2.3-12.2,6.9-16.9c4.6-4.7,10.2-7,16.7-7c3.8,0,7.1,0.8,10.2,2.4c3,1.6,5.7,4,8,7.2v-26H649.3z
		 M625.8,310.4c-3.3,0-6.3,0.8-9.1,2.4c-2.8,1.6-5,3.9-6.6,6.8s-2.5,6-2.5,9.2c0,3.2,0.8,6.3,2.5,9.2s3.9,5.2,6.6,6.9
		c2.8,1.6,5.8,2.5,9,2.5c3.2,0,6.3-0.8,9.1-2.4c2.9-1.6,5.1-3.8,6.6-6.6c1.6-2.8,2.3-5.9,2.3-9.4c0-5.3-1.7-9.7-5.2-13.3
		C635.2,312.2,630.9,310.4,625.8,310.4z"/>
	<path class="st0" d="M705,305.9v45.7h-5.8v-7.9c-2.5,3-5.2,5.2-8.3,6.8s-6.4,2.3-10.1,2.3c-6.5,0-12-2.3-16.6-7
		c-4.6-4.7-6.9-10.4-6.9-17.1c0-6.6,2.3-12.2,6.9-16.9c4.6-4.7,10.2-7,16.7-7c3.8,0,7.1,0.8,10.2,2.4c3,1.6,5.7,4,8,7.2v-8.4H705z
		 M681.5,310.4c-3.3,0-6.3,0.8-9.1,2.4c-2.8,1.6-5,3.9-6.6,6.8s-2.5,6-2.5,9.2c0,3.2,0.8,6.3,2.5,9.2s3.9,5.2,6.6,6.9
		c2.8,1.6,5.8,2.5,9,2.5c3.2,0,6.3-0.8,9.1-2.4c2.9-1.6,5.1-3.8,6.6-6.6c1.6-2.8,2.3-5.9,2.3-9.4c0-5.3-1.7-9.7-5.2-13.3
		C690.8,312.2,686.5,310.4,681.5,310.4z"/>
	<path class="st0" d="M760.6,288.3v63.3h-5.8v-7.9c-2.5,3-5.2,5.2-8.3,6.8s-6.4,2.3-10.1,2.3c-6.5,0-12-2.3-16.6-7
		c-4.6-4.7-6.9-10.4-6.9-17.1c0-6.6,2.3-12.2,6.9-16.9c4.6-4.7,10.2-7,16.7-7c3.8,0,7.1,0.8,10.2,2.4c3,1.6,5.7,4,8,7.2v-26H760.6z
		 M737.1,310.4c-3.3,0-6.3,0.8-9.1,2.4c-2.8,1.6-5,3.9-6.6,6.8s-2.5,6-2.5,9.2c0,3.2,0.8,6.3,2.5,9.2s3.9,5.2,6.6,6.9
		c2.8,1.6,5.8,2.5,9,2.5c3.2,0,6.3-0.8,9.1-2.4c2.9-1.6,5.1-3.8,6.6-6.6c1.6-2.8,2.3-5.9,2.3-9.4c0-5.3-1.7-9.7-5.2-13.3
		C746.5,312.2,742.2,310.4,737.1,310.4z"/>
</g>
</svg>
