<?xml version="1.0" encoding="utf-8"?>
<!-- Generator: Adobe Illustrator 19.0.0, SVG Export Plug-In . SVG Version: 6.00 Build 0)  -->
<svg version="1.0" id="Capa_1" xmlns="http://www.w3.org/2000/svg" xmlns:xlink="http://www.w3.org/1999/xlink" x="0px" y="0px"
	 viewBox="0 0 1000 200" style="enable-background:new 0 0 1000 200;" xml:space="preserve">
<style type="text/css">
	.st0{fill:#FFFFFF;}
</style>
<g id="XMLID_1_">
	<path id="XMLID_3_" class="st0" d="M101.1,52.1h14.4c8.3,0,13.9,0.4,16.8,1.1c4.1,1,7.5,3.1,10.2,6.3c2.6,3.2,3.9,7.2,3.9,12
		c0,4.8-1.3,8.8-3.8,12s-6.1,5.3-10.6,6.3c-3.3,0.8-9.4,1.2-18.4,1.2h-5.2v33.7h-7.2V52.1z M108.4,59.2v24.6l12.3,0.1
		c5,0,8.6-0.5,10.9-1.4c2.3-0.9,4.1-2.4,5.4-4.4c1.3-2,2-4.3,2-6.8c0-2.4-0.7-4.7-2-6.7c-1.3-2-3-3.5-5.2-4.3
		c-2.2-0.9-5.7-1.3-10.6-1.3H108.4z"/>
	<path id="XMLID_6_" class="st0" d="M198.4,106.9l5.8,3.1c-1.9,3.7-4.1,6.8-6.6,9.1c-2.5,2.3-5.3,4.1-8.4,5.3
		c-3.1,1.2-6.7,1.8-10.6,1.8c-8.8,0-15.6-2.9-20.5-8.6c-4.9-5.7-7.4-12.2-7.4-19.5c0-6.8,2.1-12.9,6.3-18.2
		c5.3-6.8,12.4-10.2,21.3-10.2c9.1,0,16.5,3.5,21.9,10.4c3.9,4.9,5.9,11,5.9,18.3h-48.3c0.1,6.2,2.1,11.3,6,15.3c3.9,4,8.6,6,14.3,6
		c2.7,0,5.4-0.5,8-1.4c2.6-0.9,4.8-2.2,6.6-3.8C194.3,112.9,196.3,110.4,198.4,106.9z M198.4,92.4c-0.9-3.7-2.3-6.6-4-8.8
		c-1.8-2.2-4.1-4-7-5.3c-2.9-1.3-5.9-2-9.1-2c-5.3,0-9.8,1.7-13.6,5.1c-2.8,2.5-4.9,6.2-6.3,11.1H198.4z"/>
	<path id="XMLID_9_" class="st0" d="M209.7,71h7.1v7.8c2.1-3.1,4.3-5.4,6.7-6.9c2.3-1.5,4.8-2.3,7.3-2.3c1.9,0,3.9,0.6,6.1,1.8
		l-3.6,5.8c-1.4-0.6-2.7-0.9-3.6-0.9c-2.3,0-4.5,0.9-6.7,2.8c-2.1,1.9-3.8,4.8-4.9,8.8c-0.9,3.1-1.3,9.2-1.3,18.5v18.1h-7.1V71z"/>
	<path id="XMLID_11_" class="st0" d="M263.1,76.9l-4.4,4.6c-3.7-3.6-7.3-5.4-10.8-5.4c-2.2,0-4.2,0.7-5.8,2.2
		c-1.6,1.5-2.4,3.2-2.4,5.2c0,1.7,0.7,3.4,2,5c1.3,1.6,4.1,3.5,8.3,5.7c5.1,2.7,8.6,5.2,10.5,7.7c1.8,2.5,2.7,5.3,2.7,8.4
		c0,4.4-1.5,8.1-4.6,11.2c-3.1,3.1-7,4.6-11.6,4.6c-3.1,0-6.1-0.7-8.9-2c-2.8-1.3-5.1-3.2-7-5.6l4.3-4.9c3.5,4,7.3,6,11.2,6
		c2.8,0,5.1-0.9,7.1-2.7c1.9-1.8,2.9-3.9,2.9-6.3c0-2-0.6-3.7-1.9-5.3c-1.3-1.5-4.2-3.4-8.7-5.7c-4.8-2.5-8.1-5-9.9-7.4
		c-1.7-2.4-2.6-5.2-2.6-8.3c0-4.1,1.4-7.5,4.2-10.2c2.8-2.7,6.3-4,10.5-4C253.1,69.6,258.1,72,263.1,76.9z"/>
	<path id="XMLID_13_" class="st0" d="M294.2,69.6c8.3,0,15.1,3,20.6,9c4.9,5.5,7.4,11.9,7.4,19.4c0,7.5-2.6,14-7.8,19.7
		c-5.2,5.6-11.9,8.4-20.1,8.4c-8.2,0-15-2.8-20.2-8.4c-5.2-5.6-7.8-12.2-7.8-19.7c0-7.4,2.5-13.9,7.4-19.3
		C279,72.6,285.9,69.6,294.2,69.6z M294.1,76.4c-5.7,0-10.7,2.1-14.8,6.4s-6.2,9.4-6.2,15.4c0,3.9,0.9,7.5,2.8,10.8
		c1.9,3.4,4.4,5.9,7.6,7.8c3.2,1.8,6.7,2.7,10.5,2.7c3.8,0,7.3-0.9,10.5-2.7c3.2-1.8,5.7-4.4,7.6-7.8c1.9-3.4,2.8-7,2.8-10.8
		c0-6-2.1-11.1-6.2-15.4S299.8,76.4,294.1,76.4z"/>
	<path id="XMLID_16_" class="st0" d="M328.3,71h6.9v9.6c2.8-3.7,5.8-6.4,9.2-8.3c3.4-1.8,7-2.7,10.9-2.7c4,0,7.6,1,10.7,3.1
		c3.1,2,5.4,4.8,6.9,8.2s2.2,8.8,2.2,16.1v27.6h-6.9V99.1c0-6.2-0.3-10.3-0.8-12.4c-0.8-3.6-2.3-6.2-4.6-8S357.6,76,354,76
		c-4.2,0-7.9,1.4-11.2,4.1c-3.3,2.8-5.5,6.2-6.5,10.3c-0.7,2.7-1,7.5-1,14.6v19.7h-6.9V71z"/>
	<path id="XMLID_18_" class="st0" d="M436.8,71v53.7H430v-9.2c-2.9,3.5-6.1,6.2-9.7,7.9c-3.6,1.8-7.5,2.7-11.8,2.7
		c-7.6,0-14.1-2.8-19.5-8.3c-5.4-5.5-8.1-12.2-8.1-20.1c0-7.7,2.7-14.3,8.1-19.8c5.4-5.5,12-8.2,19.6-8.2c4.4,0,8.4,0.9,12,2.8
		c3.6,1.9,6.7,4.7,9.4,8.4V71H436.8z M409.2,76.3c-3.8,0-7.4,0.9-10.6,2.8c-3.3,1.9-5.8,4.5-7.8,8c-1.9,3.4-2.9,7-2.9,10.8
		c0,3.8,1,7.4,2.9,10.8c1.9,3.4,4.5,6.1,7.8,8.1c3.3,1.9,6.8,2.9,10.5,2.9c3.8,0,7.4-1,10.7-2.9c3.4-1.9,6-4.5,7.8-7.7
		c1.8-3.3,2.7-6.9,2.7-11c0-6.2-2-11.4-6.1-15.6C420.2,78.4,415.2,76.3,409.2,76.3z"/>
	<path id="XMLID_21_" class="st0" d="M472.8,76.9l-4.4,4.6c-3.7-3.6-7.3-5.4-10.8-5.4c-2.2,0-4.2,0.7-5.8,2.2
		c-1.6,1.5-2.4,3.2-2.4,5.2c0,1.7,0.7,3.4,2,5c1.3,1.6,4.1,3.5,8.3,5.7c5.1,2.7,8.6,5.2,10.5,7.7c1.8,2.5,2.7,5.3,2.7,8.4
		c0,4.4-1.5,8.1-4.6,11.2c-3.1,3.1-7,4.6-11.6,4.6c-3.1,0-6.1-0.7-8.9-2c-2.8-1.3-5.1-3.2-7-5.6l4.3-4.9c3.5,4,7.3,6,11.2,6
		c2.8,0,5.1-0.9,7.1-2.7c1.9-1.8,2.9-3.9,2.9-6.3c0-2-0.6-3.7-1.9-5.3c-1.3-1.5-4.2-3.4-8.7-5.7c-4.8-2.5-8.1-5-9.9-7.4
		c-1.7-2.4-2.6-5.2-2.6-8.3c0-4.1,1.4-7.5,4.2-10.2c2.8-2.7,6.3-4,10.5-4C462.8,69.6,467.8,72,472.8,76.9z"/>
	<path id="XMLID_23_" class="st0" d="M553.4,50.3v74.4h-6.8v-9.2c-2.9,3.5-6.1,6.2-9.7,7.9c-3.6,1.8-7.5,2.7-11.8,2.7
		c-7.6,0-14.1-2.8-19.5-8.3c-5.4-5.5-8.1-12.2-8.1-20.1c0-7.7,2.7-14.3,8.1-19.8c5.4-5.5,12-8.2,19.6-8.2c4.4,0,8.4,0.9,12,2.8
		c3.6,1.9,6.7,4.7,9.4,8.4V50.3H553.4z M525.8,76.3c-3.8,0-7.4,0.9-10.6,2.8c-3.3,1.9-5.8,4.5-7.8,8c-1.9,3.4-2.9,7-2.9,10.8
		c0,3.8,1,7.4,2.9,10.8c1.9,3.4,4.5,6.1,7.8,8.1c3.3,1.9,6.8,2.9,10.5,2.9c3.8,0,7.4-1,10.7-2.9c3.4-1.9,6-4.5,7.8-7.7
		c1.8-3.3,2.7-6.9,2.7-11c0-6.2-2-11.4-6.1-15.6C536.8,78.4,531.8,76.3,525.8,76.3z"/>
	<path id="XMLID_26_" class="st0" d="M607.6,106.9l5.8,3.1c-1.9,3.7-4.1,6.8-6.6,9.1c-2.5,2.3-5.3,4.1-8.4,5.3
		c-3.1,1.2-6.7,1.8-10.6,1.8c-8.8,0-15.6-2.9-20.5-8.6c-4.9-5.7-7.4-12.2-7.4-19.5c0-6.8,2.1-12.9,6.3-18.2
		c5.3-6.8,12.4-10.2,21.3-10.2c9.1,0,16.5,3.5,21.9,10.4c3.9,4.9,5.9,11,5.9,18.3h-48.3c0.1,6.2,2.1,11.3,6,15.3s8.6,6,14.3,6
		c2.7,0,5.4-0.5,8-1.4c2.6-0.9,4.8-2.2,6.6-3.8C603.6,112.9,605.5,110.4,607.6,106.9z M607.6,92.4c-0.9-3.7-2.3-6.6-4-8.8
		c-1.8-2.2-4.1-4-7-5.3c-2.9-1.3-5.9-2-9.1-2c-5.3,0-9.8,1.7-13.6,5.1c-2.8,2.5-4.9,6.2-6.3,11.1H607.6z"/>
	<path id="XMLID_29_" class="st0" d="M678.6,50.3c11,0,20.2,3.7,27.6,11c7.4,7.3,11.1,16.4,11.1,27.1c0,10.6-3.7,19.6-11.1,27
		s-16.4,11.1-27,11.1c-10.8,0-19.8-3.7-27.2-11c-7.4-7.4-11.1-16.3-11.1-26.7c0-7,1.7-13.4,5.1-19.4c3.4-6,8-10.6,13.8-14
		C665.5,52,671.8,50.3,678.6,50.3z M678.9,57.4c-5.4,0-10.5,1.4-15.3,4.2c-4.8,2.8-8.6,6.6-11.3,11.3c-2.7,4.7-4,10-4,15.8
		c0,8.6,3,15.9,9,21.8s13.2,8.9,21.6,8.9c5.6,0,10.8-1.4,15.6-4.1c4.8-2.7,8.5-6.5,11.2-11.2s4-10,4-15.8c0-5.8-1.3-11-4-15.6
		s-6.5-8.4-11.3-11.2C689.6,58.7,684.4,57.4,678.9,57.4z"/>
	<path id="XMLID_32_" class="st0" d="M746.2,50.3v6.8c-2.5-1.1-4.7-1.6-6.5-1.6c-1.3,0-2.5,0.3-3.4,0.8c-0.9,0.5-1.4,1.2-1.7,1.9
		c-0.2,0.7-0.3,2.6-0.3,5.6l0,7.2h11.2v6h-11.2l0,47.7h-6.9V77h-7.1v-6h7.1v-8.4c0-3.8,0.4-6.6,1.1-8.2c0.7-1.6,1.9-3,3.6-4
		c1.7-1,3.7-1.5,6.1-1.5C740.4,48.9,743.1,49.4,746.2,50.3z"/>
	<path id="XMLID_34_" class="st0" d="M751.7,48.9c1.6,0,2.9,0.6,4,1.7c1.1,1.1,1.7,2.5,1.7,4c0,1.5-0.6,2.9-1.7,4
		c-1.1,1.1-2.5,1.7-4,1.7c-1.5,0-2.9-0.6-4-1.7c-1.1-1.1-1.7-2.4-1.7-4c0-1.6,0.6-2.9,1.7-4C748.8,49.5,750.1,48.9,751.7,48.9z
		 M748.3,71h6.9v53.7h-6.9V71z"/>
	<path id="XMLID_37_" class="st0" d="M815,82.2l-5.5,3.4c-4.7-6.3-11.2-9.4-19.4-9.4c-6.5,0-12,2.1-16.3,6.3
		c-4.3,4.2-6.5,9.3-6.5,15.3c0,3.9,1,7.6,3,11c2,3.4,4.7,6.1,8.2,8c3.5,1.9,7.3,2.9,11.6,2.9c7.9,0,14.3-3.1,19.3-9.4l5.5,3.6
		c-2.6,3.9-6,6.9-10.3,9s-9.2,3.2-14.8,3.2c-8.5,0-15.5-2.7-21.1-8.1c-5.6-5.4-8.4-12-8.4-19.7c0-5.2,1.3-10,3.9-14.5
		c2.6-4.5,6.2-7.9,10.8-10.4c4.6-2.5,9.7-3.7,15.3-3.7c3.6,0,7,0.5,10.3,1.6c3.3,1.1,6.1,2.5,8.4,4.2
		C811.5,77.2,813.4,79.5,815,82.2z"/>
	<path id="XMLID_39_" class="st0" d="M824.1,48.9c1.6,0,2.9,0.6,4,1.7c1.1,1.1,1.7,2.5,1.7,4c0,1.5-0.6,2.9-1.7,4
		c-1.1,1.1-2.5,1.7-4,1.7c-1.5,0-2.9-0.6-4-1.7c-1.1-1.1-1.7-2.4-1.7-4c0-1.6,0.6-2.9,1.7-4C821.3,49.5,822.6,48.9,824.1,48.9z
		 M820.7,71h6.9v53.7h-6.9V71z"/>
	<path id="XMLID_42_" class="st0" d="M860.8,69.6c8.3,0,15.1,3,20.6,9c4.9,5.5,7.4,11.9,7.4,19.4c0,7.5-2.6,14-7.8,19.7
		c-5.2,5.6-11.9,8.4-20.1,8.4c-8.2,0-15-2.8-20.2-8.4c-5.2-5.6-7.8-12.2-7.8-19.7c0-7.4,2.5-13.9,7.4-19.3
		C845.6,72.6,852.5,69.6,860.8,69.6z M860.8,76.4c-5.7,0-10.7,2.1-14.8,6.4s-6.2,9.4-6.2,15.4c0,3.9,0.9,7.5,2.8,10.8
		s4.4,5.9,7.6,7.8c3.2,1.8,6.7,2.7,10.5,2.7s7.3-0.9,10.5-2.7c3.2-1.8,5.7-4.4,7.6-7.8s2.8-7,2.8-10.8c0-6-2.1-11.1-6.2-15.4
		C871.4,78.5,866.5,76.4,860.8,76.4z"/>
</g>
<g id="XMLID_2_">
</g>
<g id="XMLID_45_">
</g>
<g id="XMLID_46_">
</g>
<g id="XMLID_47_">
</g>
<g id="XMLID_48_">
</g>
<g id="XMLID_49_">
</g>
<g id="XMLID_50_">
</g>
<g id="XMLID_51_">
</g>
<g id="XMLID_52_">
</g>
<g id="XMLID_53_">
</g>
<g id="XMLID_54_">
</g>
<g id="XMLID_55_">
</g>
<g id="XMLID_56_">
</g>
<g id="XMLID_57_">
</g>
<g id="XMLID_58_">
</g>
</svg>
