<?xml version="1.0" encoding="utf-8"?>
<!-- Generator: Adobe Illustrator 19.2.1, SVG Export Plug-In . SVG Version: 6.00 Build 0)  -->
<svg version="1.0" id="Capa_1" xmlns="http://www.w3.org/2000/svg" xmlns:xlink="http://www.w3.org/1999/xlink" x="0px" y="0px"
	 viewBox="0 0 1000 200" style="enable-background:new 0 0 1000 200;" xml:space="preserve">
<style type="text/css">
	.st0{fill:none;}
	.st1{fill:#FFFFFF;}
</style>
<g>
	<rect x="22.5" y="43.3" class="st0" width="965.1" height="107.1"/>
	<path class="st1" d="M35.7,45.8h57.6v9.8H45.7v31.5h47.2V97H45.7v39.5h47.2v9.8H35.7V45.8z"/>
	<path class="st1" d="M102.1,72h9.6v13.3c3.8-5.1,8.1-8.9,12.7-11.5s9.7-3.8,15.2-3.8c5.6,0,10.5,1.4,14.8,4.2
		c4.3,2.8,7.5,6.6,9.5,11.4s3.1,12.2,3.1,22.4v38.3h-9.6v-35.5c0-8.6-0.4-14.3-1.1-17.2c-1.1-4.9-3.2-8.6-6.4-11.1
		c-3.1-2.5-7.2-3.7-12.3-3.7c-5.8,0-11,1.9-15.6,5.7c-4.6,3.8-7.6,8.6-9.1,14.2c-0.9,3.7-1.4,10.4-1.4,20.2v27.3h-9.6V72z"/>
	<path class="st1" d="M179,43.3h9.6v103.1H179V43.3z"/>
	<path class="st1" d="M275.6,72v74.4h-9.4v-12.8c-4,4.9-8.5,8.5-13.5,11s-10.4,3.7-16.4,3.7c-10.5,0-19.5-3.8-27-11.5
		c-7.5-7.6-11.2-16.9-11.2-27.9c0-10.7,3.8-19.9,11.3-27.5c7.5-7.6,16.6-11.4,27.1-11.4c6.1,0,11.6,1.3,16.6,3.9
		c4.9,2.6,9.3,6.5,13,11.7V72H275.6z M237.4,79.3c-5.3,0-10.2,1.3-14.7,3.9c-4.5,2.6-8.1,6.3-10.8,11s-4,9.7-4,15
		c0,5.2,1.3,10.2,4,15s6.3,8.5,10.8,11.2c4.5,2.7,9.4,4,14.6,4c5.2,0,10.2-1.3,14.9-4c4.7-2.6,8.3-6.2,10.8-10.7
		c2.5-4.5,3.8-9.6,3.8-15.2c0-8.6-2.8-15.8-8.5-21.6C252.6,82.2,245.6,79.3,237.4,79.3z"/>
	<path class="st1" d="M362.3,87.4l-7.6,4.7c-6.6-8.7-15.5-13.1-26.8-13.1c-9.1,0-16.6,2.9-22.6,8.7c-6,5.8-9,12.9-9,21.2
		c0,5.4,1.4,10.5,4.1,15.3s6.5,8.5,11.3,11.1c4.8,2.6,10.2,4,16.1,4c10.9,0,19.8-4.4,26.8-13.1l7.6,5c-3.6,5.4-8.3,9.5-14.3,12.5
		c-6,3-12.8,4.4-20.5,4.4c-11.8,0-21.5-3.7-29.3-11.2c-7.7-7.5-11.6-16.6-11.6-27.3c0-7.2,1.8-13.9,5.4-20.1
		c3.6-6.2,8.6-11,14.9-14.5c6.3-3.5,13.4-5.2,21.3-5.2c4.9,0,9.7,0.8,14.3,2.3s8.5,3.5,11.7,5.9C357.4,80.6,360.1,83.7,362.3,87.4z"
		/>
	<path class="st1" d="M436.3,121.7l8.1,4.2c-2.6,5.2-5.7,9.4-9.2,12.6c-3.5,3.2-7.4,5.6-11.7,7.3c-4.3,1.7-9.2,2.5-14.7,2.5
		c-12.1,0-21.6-4-28.5-11.9c-6.8-8-10.3-16.9-10.3-27c0-9.4,2.9-17.8,8.7-25.2c7.3-9.4,17.2-14.1,29.5-14.1
		c12.7,0,22.8,4.8,30.4,14.4c5.4,6.8,8.1,15.3,8.2,25.4h-66.9c0.2,8.6,2.9,15.7,8.3,21.2s11.9,8.3,19.8,8.3c3.8,0,7.5-0.7,11.1-2
		c3.6-1.3,6.6-3.1,9.1-5.2C430.7,130,433.4,126.5,436.3,121.7z M436.3,101.6c-1.3-5.1-3.1-9.2-5.6-12.2c-2.4-3.1-5.7-5.5-9.7-7.4
		c-4-1.9-8.2-2.8-12.7-2.8c-7.3,0-13.6,2.3-18.8,7c-3.8,3.4-6.7,8.5-8.7,15.4H436.3z"/>
	<path class="st1" d="M457.6,72h9.6v12.9c3.3-4.7,6.8-8.2,10.3-10.4c4.8-2.9,9.9-4.4,15.3-4.4c3.6,0,7,0.7,10.3,2.1
		c3.2,1.4,5.9,3.3,7.9,5.6c2.1,2.3,3.8,5.7,5.3,10.1c3.2-5.8,7.2-10.3,11.9-13.3c4.8-3,9.9-4.5,15.4-4.5c5.1,0,9.7,1.3,13.6,3.9
		s6.9,6.2,8.8,10.9c1.9,4.6,2.9,11.6,2.9,20.9v40.6h-9.8v-40.6c0-8-0.6-13.5-1.7-16.4c-1.1-3-3.1-5.4-5.8-7.2
		c-2.7-1.8-6-2.7-9.8-2.7c-4.6,0-8.9,1.4-12.7,4.1c-3.8,2.7-6.6,6.4-8.4,10.9c-1.8,4.6-2.7,12.2-2.7,22.8v29.1h-9.6v-38.1
		c0-9-0.6-15.1-1.7-18.3c-1.1-3.2-3.1-5.8-5.8-7.7c-2.8-1.9-6.1-2.9-9.9-2.9c-4.4,0-8.6,1.3-12.4,4c-3.9,2.7-6.7,6.3-8.5,10.8
		s-2.8,11.4-2.8,20.7v31.5h-9.6V72z"/>
	<path class="st1" d="M644.6,121.7l8.1,4.2c-2.6,5.2-5.7,9.4-9.2,12.6c-3.5,3.2-7.4,5.6-11.7,7.3s-9.2,2.5-14.7,2.5
		c-12.1,0-21.6-4-28.5-11.9c-6.8-8-10.3-16.9-10.3-27c0-9.4,2.9-17.8,8.7-25.2c7.3-9.4,17.2-14.1,29.5-14.1
		c12.7,0,22.8,4.8,30.4,14.4c5.4,6.8,8.1,15.3,8.2,25.4h-66.9c0.2,8.6,2.9,15.7,8.3,21.2c5.3,5.5,11.9,8.3,19.8,8.3
		c3.8,0,7.5-0.7,11.1-2c3.6-1.3,6.6-3.1,9.1-5.2C639,130,641.7,126.5,644.6,121.7z M644.6,101.6c-1.3-5.1-3.1-9.2-5.6-12.2
		c-2.4-3.1-5.7-5.5-9.7-7.4c-4-1.9-8.2-2.8-12.7-2.8c-7.3,0-13.6,2.3-18.8,7c-3.8,3.4-6.7,8.5-8.7,15.4H644.6z"/>
	<path class="st1" d="M676.5,131.3c2.3,0,4.3,0.8,5.9,2.5s2.5,3.6,2.5,6c0,2.3-0.8,4.3-2.5,6s-3.6,2.5-5.9,2.5s-4.3-0.8-5.9-2.5
		s-2.5-3.7-2.5-6c0-2.4,0.8-4.4,2.5-6S674.2,131.3,676.5,131.3z"/>
	<path class="st1" d="M770,87.4l-7.6,4.7c-6.6-8.7-15.5-13.1-26.8-13.1c-9.1,0-16.6,2.9-22.6,8.7c-6,5.8-9,12.9-9,21.2
		c0,5.4,1.4,10.5,4.1,15.3c2.8,4.8,6.5,8.5,11.3,11.1c4.8,2.6,10.2,4,16.1,4c10.9,0,19.8-4.4,26.8-13.1l7.6,5
		c-3.6,5.4-8.3,9.5-14.3,12.5c-6,3-12.8,4.4-20.5,4.4c-11.8,0-21.5-3.7-29.3-11.2c-7.7-7.5-11.6-16.6-11.6-27.3
		c0-7.2,1.8-13.9,5.4-20.1c3.6-6.2,8.6-11,14.9-14.5c6.3-3.5,13.4-5.2,21.3-5.2c4.9,0,9.7,0.8,14.3,2.3s8.5,3.5,11.7,5.9
		C765,80.6,767.7,83.7,770,87.4z"/>
	<path class="st1" d="M816.6,70.1c11.5,0,21,4.1,28.5,12.4c6.8,7.6,10.3,16.5,10.3,26.9c0,10.4-3.6,19.5-10.9,27.2
		c-7.2,7.8-16.5,11.7-27.9,11.7c-11.4,0-20.7-3.9-28-11.7c-7.2-7.8-10.9-16.9-10.9-27.2c0-10.3,3.4-19.2,10.3-26.8
		C795.5,74.2,805,70.1,816.6,70.1z M816.5,79.4c-8,0-14.8,2.9-20.5,8.8c-5.7,5.9-8.6,13-8.6,21.3c0,5.4,1.3,10.4,3.9,15
		c2.6,4.6,6.1,8.2,10.6,10.8s9.3,3.8,14.6,3.8c5.3,0,10.2-1.3,14.6-3.8c4.4-2.5,8-6.1,10.6-10.8c2.6-4.6,3.9-9.7,3.9-15
		c0-8.3-2.9-15.4-8.6-21.3S824.4,79.4,816.5,79.4z"/>
	<path class="st1" d="M865.9,72h9.6v12.9c3.3-4.7,6.8-8.2,10.3-10.4c4.8-2.9,9.9-4.4,15.3-4.4c3.6,0,7,0.7,10.3,2.1
		c3.2,1.4,5.9,3.3,7.9,5.6c2.1,2.3,3.8,5.7,5.3,10.1c3.2-5.8,7.2-10.3,11.9-13.3c4.8-3,9.9-4.5,15.4-4.5c5.1,0,9.7,1.3,13.6,3.9
		c3.9,2.6,6.9,6.2,8.8,10.9c1.9,4.6,2.9,11.6,2.9,20.9v40.6h-9.8v-40.6c0-8-0.6-13.5-1.7-16.4c-1.1-3-3.1-5.4-5.8-7.2
		c-2.7-1.8-6-2.7-9.8-2.7c-4.6,0-8.9,1.4-12.7,4.1s-6.6,6.4-8.4,10.9c-1.8,4.6-2.7,12.2-2.7,22.8v29.1h-9.6v-38.1
		c0-9-0.6-15.1-1.7-18.3c-1.1-3.2-3.1-5.8-5.8-7.7c-2.8-1.9-6.1-2.9-9.9-2.9c-4.4,0-8.6,1.3-12.4,4c-3.9,2.7-6.7,6.3-8.5,10.8
		s-2.8,11.4-2.8,20.7v31.5h-9.6V72z"/>
</g>
<g>
</g>
<g>
</g>
<g>
</g>
<g>
</g>
<g>
</g>
<g>
</g>
<g>
</g>
<g>
</g>
<g>
</g>
<g>
</g>
<g>
</g>
<g>
</g>
<g>
</g>
<g>
</g>
<g>
</g>
</svg>
